<?xml version="1.0" standalone="no"?>
<!DOCTYPE svg PUBLIC "-//W3C//DTD SVG 20010904//EN"
 "http://www.w3.org/TR/2001/REC-SVG-20010904/DTD/svg10.dtd">
<svg version="1.0" xmlns="http://www.w3.org/2000/svg"
 width="384.000000pt" height="365.000000pt" viewBox="0 0 384.000000 365.000000"
 preserveAspectRatio="xMidYMid meet">

<g transform="translate(0.000000,365.000000) scale(0.100000,-0.100000)"
fill="#000000" stroke="none">
<path d="M20 3630 c-22 -17 -24 -21 -12 -41 10 -15 11 -24 3 -32 -16 -16 -13
-68 6 -89 15 -17 15 -19 0 -36 -23 -25 -21 -54 3 -70 26 -16 25 -36 -2 -55
-21 -13 -22 -18 -10 -37 10 -16 11 -25 3 -33 -16 -16 -13 -68 6 -89 15 -17 15
-19 0 -36 -23 -25 -21 -54 3 -70 26 -16 25 -36 -3 -55 -20 -13 -21 -18 -9 -37
10 -16 11 -25 3 -33 -16 -16 -13 -68 6 -89 15 -17 15 -19 0 -36 -23 -25 -21
-54 3 -70 26 -16 25 -36 -3 -55 -20 -13 -21 -18 -9 -37 10 -16 11 -25 3 -33
-16 -16 -13 -68 6 -89 15 -17 15 -19 0 -36 -23 -25 -21 -54 3 -70 26 -16 25
-36 -2 -55 -21 -13 -22 -18 -10 -37 10 -16 11 -25 3 -33 -16 -16 -13 -68 6
-89 15 -17 15 -19 0 -36 -23 -25 -21 -54 3 -70 26 -16 25 -36 -2 -55 -21 -13
-22 -18 -10 -37 10 -16 11 -25 3 -33 -16 -16 -13 -68 6 -89 15 -17 15 -19 0
-36 -23 -25 -21 -54 3 -70 26 -16 25 -36 -3 -55 -20 -13 -21 -18 -9 -37 10
-16 11 -25 3 -33 -16 -16 -13 -68 6 -89 15 -17 15 -19 0 -36 -23 -25 -21 -54
3 -70 26 -16 25 -36 -2 -55 -21 -13 -22 -18 -10 -37 10 -16 11 -25 3 -33 -16
-16 -13 -68 6 -89 15 -17 15 -19 0 -36 -23 -25 -21 -54 3 -70 26 -16 25 -36
-2 -55 -21 -13 -22 -18 -10 -37 10 -16 11 -25 3 -33 -16 -16 -13 -68 6 -89 15
-17 15 -19 0 -36 -23 -25 -21 -54 3 -70 26 -16 25 -36 -3 -55 -20 -13 -21 -18
-9 -37 10 -16 11 -25 3 -33 -16 -16 -13 -68 6 -89 15 -17 15 -19 0 -36 -10
-10 -17 -26 -17 -35 0 -23 42 -62 68 -63 12 0 20 2 17 4 -3 3 0 11 6 19 9 9 8
13 0 13 -6 0 -11 -4 -11 -10 0 -5 -5 -10 -12 -10 -15 0 43 59 59 60 6 0 15 9
18 20 8 26 22 26 30 0 3 -11 12 -20 18 -20 16 -1 74 -60 59 -60 -7 0 -12 5
-12 10 0 6 -5 10 -11 10 -8 0 -9 -4 0 -13 6 -8 9 -16 7 -18 -2 -2 6 -4 19 -4
13 0 21 3 19 6 -2 4 5 14 16 24 23 20 26 55 8 73 -10 10 -10 17 0 32 14 23 16
44 3 35 -5 -3 -13 -1 -16 5 -4 6 -1 9 7 8 9 -2 12 7 11 27 -3 54 -7 70 -17 77
-17 11 -14 47 6 65 21 19 24 53 6 71 -10 10 -10 17 0 32 14 23 16 44 3 35 -5
-3 -13 -1 -16 5 -4 6 -1 9 7 8 9 -2 12 7 11 27 -3 54 -7 70 -17 77 -17 11 -14
47 6 65 21 19 24 53 6 71 -10 10 -10 17 0 32 14 23 16 44 3 35 -5 -3 -13 -1
-16 5 -4 6 -1 9 7 8 9 -2 12 7 11 27 -3 54 -7 70 -17 77 -17 11 -14 47 6 65
21 19 24 53 6 71 -10 10 -10 17 0 32 14 23 16 44 3 35 -5 -3 -13 -1 -16 5 -4
6 -1 9 7 8 9 -2 12 7 11 27 -3 54 -7 70 -17 77 -17 11 -14 47 6 65 21 19 24
53 6 71 -10 10 -10 17 0 32 14 23 16 44 3 35 -5 -3 -13 -1 -16 5 -4 6 -1 9 7
8 9 -2 12 7 11 27 -3 54 -7 70 -17 77 -17 11 -14 47 6 65 21 19 24 53 6 71
-10 10 -10 17 0 32 14 23 16 44 3 35 -5 -3 -13 -1 -16 5 -4 6 -1 9 7 8 9 -2
12 7 11 27 -3 54 -7 70 -17 77 -17 11 -14 47 6 65 21 19 24 53 6 71 -10 10
-10 17 0 32 14 23 16 44 3 35 -5 -3 -13 -1 -16 5 -4 6 -1 9 7 8 9 -2 12 7 11
27 -3 54 -7 70 -17 77 -17 11 -14 47 6 65 21 19 24 53 6 71 -10 10 -10 17 0
32 14 23 16 44 3 35 -5 -3 -13 -1 -16 5 -4 6 -1 9 7 8 9 -2 12 7 11 27 -3 54
-7 70 -17 77 -17 11 -14 47 6 65 21 19 24 53 6 71 -10 10 -10 17 0 32 14 23
16 44 3 35 -5 -3 -13 -1 -16 5 -4 6 -1 9 7 8 9 -2 12 7 11 27 -1 17 -3 40 -4
52 -1 12 -8 24 -15 27 -17 7 -8 34 22 63 20 20 23 21 36 6 22 -27 74 -43 137
-43 67 0 106 12 139 42 l22 21 23 -21 c32 -30 71 -42 137 -42 66 0 105 12 138
42 l22 21 23 -21 c32 -30 71 -42 137 -42 66 0 105 12 138 42 l22 21 23 -21
c32 -30 71 -42 137 -42 66 0 105 12 137 42 l22 21 31 -26 c37 -31 80 -41 160
-35 93 7 138 50 109 105 -10 18 -10 26 -1 35 14 14 16 42 3 33 -5 -3 -13 -1
-16 5 -4 6 -1 9 7 8 9 -2 12 7 11 27 -1 17 -3 40 -4 52 -1 12 -8 24 -16 27 -8
3 -11 11 -7 17 4 8 3 9 -5 5 -6 -4 -9 -12 -6 -17 12 -18 -6 -31 -23 -17 -15
12 -16 11 -4 -4 16 -19 7 -42 -13 -34 -7 2 -16 -2 -19 -10 -3 -9 -11 -12 -16
-9 -6 4 -9 1 -8 -7 2 -8 -7 -13 -22 -13 -15 0 -24 5 -22 13 1 8 -2 11 -8 7 -5
-3 -13 0 -16 9 -3 9 -12 12 -21 9 -12 -5 -14 -3 -8 7 5 9 4 11 -3 6 -16 -10
-15 6 1 24 10 12 9 12 -5 1 -10 -7 -18 -10 -18 -5 0 4 -7 -1 -15 -12 -10 -13
-14 -14 -13 -4 2 8 9 21 16 28 20 22 3 33 -24 16 -22 -15 -26 -15 -48 0 -27
17 -44 6 -24 -16 7 -7 14 -20 16 -28 1 -10 -3 -9 -13 4 -8 11 -15 16 -15 12 0
-5 -8 -2 -17 5 -16 13 -17 12 -5 -3 16 -19 7 -42 -13 -34 -7 2 -16 -2 -19 -10
-3 -9 -11 -12 -16 -9 -6 4 -9 1 -8 -7 2 -8 -7 -13 -22 -13 -15 0 -24 5 -22 13
1 8 -2 11 -8 7 -5 -3 -13 0 -16 9 -3 9 -12 12 -21 9 -12 -5 -14 -3 -8 7 5 9 4
11 -3 6 -16 -10 -15 6 1 24 10 12 9 12 -5 1 -10 -7 -18 -10 -18 -5 0 4 -7 -1
-15 -12 -10 -13 -14 -14 -13 -4 2 8 9 21 16 28 20 22 3 33 -24 16 -22 -15 -26
-15 -48 0 -27 17 -44 6 -24 -16 7 -7 14 -20 16 -28 1 -10 -3 -9 -13 4 -8 11
-15 16 -15 12 0 -5 -8 -2 -17 5 -16 13 -17 12 -5 -3 16 -19 7 -42 -13 -34 -7
2 -16 -2 -19 -10 -3 -9 -11 -12 -16 -9 -6 4 -9 1 -8 -7 2 -8 -7 -13 -22 -13
-15 0 -24 5 -22 13 1 8 -2 11 -8 7 -5 -3 -13 0 -16 9 -3 9 -12 12 -21 9 -12
-5 -14 -3 -8 7 5 9 4 11 -3 6 -16 -10 -15 6 1 24 10 12 9 12 -5 1 -10 -7 -18
-10 -18 -5 0 4 -7 -1 -15 -12 -10 -13 -14 -14 -13 -4 2 8 9 21 16 28 20 22 3
33 -24 16 -22 -15 -26 -15 -48 0 -27 17 -44 6 -24 -16 7 -7 14 -20 16 -28 1
-10 -3 -9 -13 4 -8 11 -15 16 -15 12 0 -5 -8 -2 -17 5 -16 13 -17 12 -5 -3 16
-19 7 -42 -13 -34 -7 2 -16 -2 -19 -10 -3 -9 -11 -12 -16 -9 -6 4 -9 1 -8 -7
2 -8 -7 -13 -22 -13 -15 0 -24 5 -22 13 1 8 -2 11 -8 7 -5 -3 -13 0 -16 9 -3
9 -12 12 -21 9 -12 -5 -14 -3 -8 7 5 9 4 11 -3 6 -16 -10 -15 6 1 24 10 12 9
12 -5 1 -10 -7 -18 -10 -18 -5 0 4 -7 -1 -15 -12 -10 -13 -14 -14 -13 -4 2 8
9 21 16 28 20 22 3 33 -24 16 -22 -15 -26 -15 -48 0 -27 17 -44 6 -24 -16 7
-7 14 -20 16 -28 1 -10 -3 -9 -13 4 -8 11 -15 16 -15 12 0 -5 -8 -2 -17 5 -16
13 -17 12 -5 -3 16 -19 7 -42 -13 -34 -7 2 -16 -2 -19 -10 -3 -9 -11 -12 -16
-9 -6 4 -9 1 -8 -7 2 -8 -7 -13 -22 -13 -15 0 -24 5 -22 13 1 8 -2 11 -8 7 -5
-3 -13 0 -16 9 -3 9 -12 12 -21 9 -12 -5 -14 -3 -8 7 5 9 4 11 -3 6 -16 -10
-15 6 1 24 10 12 9 12 -5 1 -10 -7 -18 -10 -18 -5 0 4 -7 -1 -15 -12 -10 -13
-14 -14 -13 -4 2 8 9 21 16 28 20 22 3 33 -24 16 -22 -15 -26 -15 -48 0 -27
17 -44 6 -24 -16 7 -7 14 -20 16 -28 1 -10 -3 -9 -13 4 -8 11 -15 16 -15 12 0
-5 -8 -2 -17 5 -16 13 -17 12 -5 -3 16 -19 7 -42 -13 -34 -7 2 -16 -2 -19 -10
-3 -9 -11 -12 -16 -9 -6 4 -9 1 -8 -7 2 -8 -7 -13 -22 -13 -15 0 -24 5 -22 13
1 8 -2 11 -8 7 -5 -3 -13 0 -16 9 -3 9 -12 12 -21 9 -12 -5 -14 -3 -8 7 5 9 4
11 -3 6 -16 -10 -15 6 1 24 10 12 9 12 -5 1 -10 -7 -18 -10 -18 -5 0 4 -6 0
-13 -10 -12 -16 -14 -16 -14 -2 0 9 4 16 8 16 10 0 19 29 11 34 -4 2 -19 -4
-32 -14z m1867 -35 c0 -8 -4 -12 -9 -9 -4 3 -8 9 -8 15 0 5 4 9 8 9 5 0 9 -7
9 -15z m-1551 -16 c10 -17 -13 -36 -27 -22 -12 12 -4 33 11 33 5 0 12 -5 16
-11z m320 0 c10 -17 -13 -36 -27 -22 -12 12 -4 33 11 33 5 0 12 -5 16 -11z
m320 0 c10 -17 -13 -36 -27 -22 -12 12 -4 33 11 33 5 0 12 -5 16 -11z m320 0
c10 -17 -13 -36 -27 -22 -12 12 -4 33 11 33 5 0 12 -5 16 -11z m320 0 c10 -17
-13 -36 -27 -22 -12 12 -4 33 11 33 5 0 12 -5 16 -11z m-1555 -22 c-6 -6 -18
-12 -27 -13 -14 -2 -14 0 1 17 10 10 22 16 27 13 6 -4 6 -10 -1 -17z m223 4
c12 -14 14 -19 4 -17 -22 3 -39 17 -33 27 8 12 9 12 29 -10z m97 -4 c-6 -6
-18 -12 -27 -13 -14 -2 -14 0 1 17 10 10 22 16 27 13 6 -4 6 -10 -1 -17z m223
4 c12 -14 14 -19 4 -17 -22 3 -39 17 -33 27 8 12 9 12 29 -10z m97 -4 c-6 -6
-18 -12 -27 -13 -14 -2 -14 0 1 17 10 10 22 16 27 13 6 -4 6 -10 -1 -17z m223
4 c12 -14 14 -19 4 -17 -22 3 -39 17 -33 27 8 12 9 12 29 -10z m97 -4 c-6 -6
-18 -12 -27 -13 -14 -2 -14 0 1 17 10 10 22 16 27 13 6 -4 6 -10 -1 -17z m223
4 c12 -14 14 -19 4 -17 -22 3 -39 17 -33 27 8 12 9 12 29 -10z m97 -4 c-6 -6
-18 -12 -27 -13 -14 -2 -14 0 1 17 10 10 22 16 27 13 6 -4 6 -10 -1 -17z m223
4 c12 -14 14 -19 4 -17 -22 3 -39 17 -33 27 8 12 9 12 29 -10z m97 -4 c-6 -6
-18 -12 -27 -13 -14 -2 -14 0 1 17 10 10 22 16 27 13 6 -4 6 -10 -1 -17z m223
4 c12 -14 14 -19 4 -17 -22 3 -39 17 -33 27 8 12 9 12 29 -10z m-1777 -20 c10
-15 9 -22 -1 -30 -18 -15 -51 10 -43 33 9 22 29 20 44 -3z m150 3 c8 -23 -25
-48 -43 -33 -10 8 -11 15 -1 30 15 23 35 25 44 3z m170 -3 c10 -15 9 -22 -1
-30 -18 -15 -51 10 -43 33 9 22 29 20 44 -3z m150 3 c8 -23 -25 -48 -43 -33
-10 8 -11 15 -1 30 15 23 35 25 44 3z m170 -3 c10 -15 9 -22 -1 -30 -18 -15
-51 10 -43 33 9 22 29 20 44 -3z m150 3 c8 -23 -25 -48 -43 -33 -10 8 -11 15
-1 30 15 23 35 25 44 3z m170 -3 c10 -15 9 -22 -1 -30 -18 -15 -51 10 -43 33
9 22 29 20 44 -3z m150 3 c8 -23 -25 -48 -43 -33 -10 8 -11 15 -1 30 15 23 35
25 44 3z m170 -3 c10 -15 9 -22 -1 -30 -18 -15 -51 10 -43 33 9 22 29 20 44
-3z m150 3 c8 -23 -25 -48 -43 -33 -10 8 -11 15 -1 30 15 23 35 25 44 3z m170
-3 c10 -15 9 -22 -1 -30 -18 -15 -51 10 -43 33 9 22 29 20 44 -3z m150 3 c8
-23 -25 -48 -43 -33 -10 8 -11 15 -1 30 15 23 35 25 44 3z m-1717 -26 c0 -19
-18 -43 -25 -36 -4 3 -2 16 5 27 12 24 20 27 20 9z m70 -30 c0 -14 -18 -9 -24
8 -11 28 -6 39 9 20 8 -11 15 -23 15 -28z m250 30 c0 -19 -18 -43 -25 -36 -4
3 -2 16 5 27 12 24 20 27 20 9z m70 -30 c0 -14 -18 -9 -24 8 -11 28 -6 39 9
20 8 -11 15 -23 15 -28z m250 30 c0 -19 -18 -43 -25 -36 -4 3 -2 16 5 27 12
24 20 27 20 9z m70 -30 c0 -14 -18 -9 -24 8 -11 28 -6 39 9 20 8 -11 15 -23
15 -28z m250 30 c0 -19 -18 -43 -25 -36 -4 3 -2 16 5 27 12 24 20 27 20 9z
m70 -30 c0 -14 -18 -9 -24 8 -11 28 -6 39 9 20 8 -11 15 -23 15 -28z m250 30
c0 -19 -18 -43 -25 -36 -4 3 -2 16 5 27 12 24 20 27 20 9z m70 -30 c0 -14 -18
-9 -24 8 -11 28 -6 39 9 20 8 -11 15 -23 15 -28z m250 30 c0 -19 -18 -43 -25
-36 -4 3 -2 16 5 27 12 24 20 27 20 9z m70 -30 c0 -14 -18 -9 -24 8 -11 28 -6
39 9 20 8 -11 15 -23 15 -28z m-1770 26 c0 -8 -19 -13 -24 -6 -3 5 1 9 9 9 8
0 15 -2 15 -3z m134 -11 c8 -21 -10 -41 -24 -27 -11 11 -3 44 10 44 4 0 11 -8
14 -17z m186 11 c0 -8 -19 -13 -24 -6 -3 5 1 9 9 9 8 0 15 -2 15 -3z m134 -11
c8 -21 -10 -41 -24 -27 -11 11 -3 44 10 44 4 0 11 -8 14 -17z m186 11 c0 -8
-19 -13 -24 -6 -3 5 1 9 9 9 8 0 15 -2 15 -3z m134 -11 c8 -21 -10 -41 -24
-27 -11 11 -3 44 10 44 4 0 11 -8 14 -17z m186 11 c0 -8 -19 -13 -24 -6 -3 5
1 9 9 9 8 0 15 -2 15 -3z m134 -11 c8 -21 -10 -41 -24 -27 -11 11 -3 44 10 44
4 0 11 -8 14 -17z m186 11 c0 -8 -19 -13 -24 -6 -3 5 1 9 9 9 8 0 15 -2 15 -3z
m134 -11 c8 -21 -10 -41 -24 -27 -11 11 -3 44 10 44 4 0 11 -8 14 -17z m186
11 c0 -8 -19 -13 -24 -6 -3 5 1 9 9 9 8 0 15 -2 15 -3z m134 -11 c8 -21 -10
-41 -24 -27 -11 11 -3 44 10 44 4 0 11 -8 14 -17z m-1434 -39 c11 -12 10 -18
-3 -32 -16 -15 -18 -15 -34 0 -13 14 -14 20 -3 32 7 9 16 16 20 16 4 0 13 -7
20 -16z m320 0 c11 -12 10 -18 -3 -32 -16 -15 -18 -15 -34 0 -13 14 -14 20 -3
32 7 9 16 16 20 16 4 0 13 -7 20 -16z m320 0 c11 -12 10 -18 -3 -32 -16 -15
-18 -15 -34 0 -13 14 -14 20 -3 32 7 9 16 16 20 16 4 0 13 -7 20 -16z m320 0
c11 -12 10 -18 -3 -32 -16 -15 -18 -15 -34 0 -13 14 -14 20 -3 32 7 9 16 16
20 16 4 0 13 -7 20 -16z m320 0 c11 -12 10 -18 -3 -32 -16 -15 -18 -15 -34 0
-13 14 -14 20 -3 32 7 9 16 16 20 16 4 0 13 -7 20 -16z m-1445 -34 c3 -11 12
-20 18 -20 16 -1 74 -60 59 -60 -7 0 -12 5 -12 10 0 6 -5 10 -11 10 -8 0 -8
-5 1 -15 11 -14 7 -19 -13 -16 -4 0 -6 -4 -5 -11 2 -6 -9 -18 -23 -26 -22 -13
-30 -13 -57 -1 -18 8 -30 19 -27 26 2 7 1 12 -3 12 -19 -3 -23 2 -12 16 9 10
9 15 1 15 -6 0 -11 -4 -11 -10 0 -5 -5 -10 -12 -10 -15 0 43 59 59 60 6 0 15
9 18 20 3 11 10 20 15 20 5 0 12 -9 15 -20z m-85 -110 c6 -11 17 -20 25 -20 8
0 18 -6 22 -12 16 -25 43 -16 85 30 24 25 53 30 44 7 -3 -8 0 -20 7 -27 7 -8
13 -20 15 -28 1 -10 -3 -9 -13 4 -8 11 -15 16 -15 12 0 -5 -8 -2 -17 5 -16 13
-17 12 -5 -3 16 -19 7 -42 -13 -34 -7 2 -16 -2 -19 -10 -3 -9 -11 -12 -16 -9
-6 4 -9 1 -8 -7 2 -8 -7 -13 -22 -13 -15 0 -24 5 -22 13 1 8 -2 11 -8 7 -5 -3
-13 0 -16 9 -3 9 -12 12 -21 9 -12 -5 -14 -3 -8 7 5 9 4 11 -3 6 -16 -10 -15
6 1 24 10 12 9 12 -5 1 -10 -7 -18 -10 -18 -5 0 4 -7 -1 -15 -12 -10 -13 -14
-14 -13 -4 2 8 8 20 15 28 7 7 10 19 7 27 -9 23 24 18 36 -5z m-29 -83 c-6 -6
-18 -12 -27 -13 -14 -2 -14 0 1 17 10 10 22 16 27 13 6 -4 6 -10 -1 -17z m223
4 c12 -14 14 -19 4 -17 -22 3 -39 17 -33 27 8 12 9 12 29 -10z m-177 -20 c10
-15 9 -22 -1 -30 -18 -15 -51 10 -43 33 9 22 29 20 44 -3z m150 3 c8 -23 -25
-48 -43 -33 -10 8 -11 15 -1 30 15 23 35 25 44 3z m-117 -26 c0 -19 -18 -43
-25 -36 -4 3 -2 16 5 27 12 24 20 27 20 9z m70 -30 c0 -14 -18 -9 -24 8 -11
28 -6 39 9 20 8 -11 15 -23 15 -28z m-170 26 c0 -8 -19 -13 -24 -6 -3 5 1 9 9
9 8 0 15 -2 15 -3z m134 -11 c8 -21 -10 -41 -24 -27 -11 11 -3 44 10 44 4 0
11 -8 14 -17z m1 -73 c3 -11 12 -20 18 -20 16 -1 74 -60 59 -60 -7 0 -12 5
-12 10 0 6 -5 10 -11 10 -8 0 -8 -5 1 -15 11 -14 7 -19 -13 -16 -4 0 -6 -4 -5
-11 2 -6 -9 -18 -23 -26 -22 -13 -30 -13 -57 -1 -18 8 -30 19 -27 26 2 7 1 12
-3 12 -19 -3 -23 2 -12 16 9 10 9 15 1 15 -6 0 -11 -4 -11 -10 0 -5 -5 -10
-12 -10 -15 0 43 59 59 60 6 0 15 9 18 20 3 11 10 20 15 20 5 0 12 -9 15 -20z
m-85 -110 c6 -11 17 -20 25 -20 8 0 18 -6 22 -12 16 -25 43 -16 85 30 24 25
53 30 44 7 -3 -8 0 -20 7 -27 7 -8 13 -20 15 -28 1 -10 -3 -9 -13 4 -8 11 -15
16 -15 12 0 -5 -8 -2 -17 5 -16 13 -17 12 -5 -3 16 -19 7 -42 -13 -34 -7 2
-16 -2 -19 -10 -3 -9 -11 -12 -16 -9 -6 4 -9 1 -8 -7 2 -8 -7 -13 -22 -13 -15
0 -24 5 -22 13 1 8 -2 11 -8 7 -5 -3 -13 0 -16 9 -3 9 -12 12 -21 9 -12 -5
-14 -3 -8 7 5 9 4 11 -3 6 -16 -10 -15 6 1 24 10 12 9 12 -5 1 -10 -7 -18 -10
-18 -5 0 4 -7 -1 -15 -12 -10 -13 -14 -14 -13 -4 2 8 8 20 15 28 7 7 10 19 7
27 -9 23 24 18 36 -5z m-29 -83 c-6 -6 -18 -12 -27 -13 -14 -2 -14 0 1 17 10
10 22 16 27 13 6 -4 6 -10 -1 -17z m223 4 c12 -14 14 -19 4 -17 -22 3 -39 17
-33 27 8 12 9 12 29 -10z m-177 -20 c10 -15 9 -22 -1 -30 -18 -15 -51 10 -43
33 9 22 29 20 44 -3z m150 3 c8 -23 -25 -48 -43 -33 -10 8 -11 15 -1 30 15 23
35 25 44 3z m-117 -26 c0 -19 -18 -43 -25 -36 -4 3 -2 16 5 27 12 24 20 27 20
9z m70 -30 c0 -14 -18 -9 -24 8 -11 28 -6 39 9 20 8 -11 15 -23 15 -28z m-170
26 c0 -8 -19 -13 -24 -6 -3 5 1 9 9 9 8 0 15 -2 15 -3z m134 -11 c8 -21 -10
-41 -24 -27 -11 11 -3 44 10 44 4 0 11 -8 14 -17z m1 -73 c3 -11 12 -20 18
-20 16 -1 74 -60 59 -60 -7 0 -12 5 -12 10 0 6 -5 10 -11 10 -8 0 -8 -5 1 -15
11 -14 7 -19 -13 -16 -4 0 -6 -4 -5 -11 2 -6 -9 -18 -23 -26 -22 -13 -30 -13
-57 -1 -18 8 -30 19 -27 26 2 7 1 12 -3 12 -19 -3 -23 2 -12 16 9 10 9 15 1
15 -6 0 -11 -4 -11 -10 0 -5 -5 -10 -12 -10 -15 0 43 59 59 60 6 0 15 9 18 20
3 11 10 20 15 20 5 0 12 -9 15 -20z m-85 -110 c6 -11 17 -20 25 -20 8 0 18 -6
22 -12 16 -25 43 -16 85 30 24 25 53 30 44 7 -3 -8 0 -20 7 -27 7 -8 13 -20
15 -28 1 -10 -3 -9 -13 4 -8 11 -15 16 -15 12 0 -5 -8 -2 -17 5 -16 13 -17 12
-5 -3 16 -19 7 -42 -13 -34 -7 2 -16 -2 -19 -10 -3 -9 -11 -12 -16 -9 -6 4 -9
1 -8 -7 2 -8 -7 -13 -22 -13 -15 0 -24 5 -22 13 1 8 -2 11 -8 7 -5 -3 -13 0
-16 9 -3 9 -12 12 -21 9 -12 -5 -14 -3 -8 7 5 9 4 11 -3 6 -16 -10 -15 6 1 24
10 12 9 12 -5 1 -10 -7 -18 -10 -18 -5 0 4 -7 -1 -15 -12 -10 -13 -14 -14 -13
-4 2 8 8 20 15 28 7 7 10 19 7 27 -9 23 24 18 36 -5z m-29 -83 c-6 -6 -18 -12
-27 -13 -14 -2 -14 0 1 17 10 10 22 16 27 13 6 -4 6 -10 -1 -17z m223 4 c12
-14 14 -19 4 -17 -22 3 -39 17 -33 27 8 12 9 12 29 -10z m-177 -20 c10 -15 9
-22 -1 -30 -18 -15 -51 10 -43 33 9 22 29 20 44 -3z m150 3 c8 -23 -25 -48
-43 -33 -10 8 -11 15 -1 30 15 23 35 25 44 3z m-117 -26 c0 -19 -18 -43 -25
-36 -4 3 -2 16 5 27 12 24 20 27 20 9z m70 -30 c0 -14 -18 -9 -24 8 -11 28 -6
39 9 20 8 -11 15 -23 15 -28z m-170 26 c0 -8 -19 -13 -24 -6 -3 5 1 9 9 9 8 0
15 -2 15 -3z m134 -11 c8 -21 -10 -41 -24 -27 -11 11 -3 44 10 44 4 0 11 -8
14 -17z m1 -73 c3 -11 12 -20 18 -20 16 -1 74 -60 59 -60 -7 0 -12 5 -12 10 0
6 -5 10 -11 10 -8 0 -8 -5 1 -15 11 -14 7 -19 -13 -16 -4 0 -6 -4 -5 -11 2 -6
-9 -18 -23 -26 -22 -13 -30 -13 -57 -1 -18 8 -30 19 -27 26 2 7 1 12 -3 12
-19 -3 -23 2 -12 16 9 10 9 15 1 15 -6 0 -11 -4 -11 -10 0 -5 -5 -10 -12 -10
-15 0 43 59 59 60 6 0 15 9 18 20 3 11 10 20 15 20 5 0 12 -9 15 -20z m-85
-110 c6 -11 17 -20 25 -20 8 0 18 -6 22 -12 16 -25 43 -16 85 30 24 25 53 30
44 7 -3 -8 0 -20 7 -27 7 -8 13 -20 15 -28 1 -10 -3 -9 -13 4 -8 11 -15 16
-15 12 0 -5 -8 -2 -17 5 -16 13 -17 12 -5 -3 16 -19 7 -42 -13 -34 -7 2 -16
-2 -19 -10 -3 -9 -11 -12 -16 -9 -6 4 -9 1 -8 -7 2 -8 -7 -13 -22 -13 -15 0
-24 5 -22 13 1 8 -2 11 -8 7 -5 -3 -13 0 -16 9 -3 9 -12 12 -21 9 -12 -5 -14
-3 -8 7 5 9 4 11 -3 6 -16 -10 -15 6 1 24 10 12 9 12 -5 1 -10 -7 -18 -10 -18
-5 0 4 -7 -1 -15 -12 -10 -13 -14 -14 -13 -4 2 8 8 20 15 28 7 7 10 19 7 27
-9 23 24 18 36 -5z m-29 -83 c-6 -6 -18 -12 -27 -13 -14 -2 -14 0 1 17 10 10
22 16 27 13 6 -4 6 -10 -1 -17z m223 4 c12 -14 14 -19 4 -17 -22 3 -39 17 -33
27 8 12 9 12 29 -10z m-177 -20 c10 -15 9 -22 -1 -30 -18 -15 -51 10 -43 33 9
22 29 20 44 -3z m150 3 c8 -23 -25 -48 -43 -33 -10 8 -11 15 -1 30 15 23 35
25 44 3z m-117 -26 c0 -19 -18 -43 -25 -36 -4 3 -2 16 5 27 12 24 20 27 20 9z
m70 -30 c0 -14 -18 -9 -24 8 -11 28 -6 39 9 20 8 -11 15 -23 15 -28z m-170 26
c0 -8 -19 -13 -24 -6 -3 5 1 9 9 9 8 0 15 -2 15 -3z m134 -11 c8 -21 -10 -41
-24 -27 -11 11 -3 44 10 44 4 0 11 -8 14 -17z m1 -73 c3 -11 12 -20 18 -20 16
-1 74 -60 59 -60 -7 0 -12 5 -12 10 0 6 -5 10 -11 10 -8 0 -8 -5 1 -15 11 -14
7 -19 -13 -16 -4 0 -6 -4 -5 -11 2 -6 -9 -18 -23 -26 -22 -13 -30 -13 -57 -1
-18 8 -30 19 -27 26 2 7 1 12 -3 12 -19 -3 -23 2 -12 16 9 10 9 15 1 15 -6 0
-11 -4 -11 -10 0 -5 -5 -10 -12 -10 -15 0 43 59 59 60 6 0 15 9 18 20 3 11 10
20 15 20 5 0 12 -9 15 -20z m-85 -110 c6 -11 17 -20 25 -20 8 0 18 -6 22 -12
16 -25 43 -16 85 30 24 25 53 30 44 7 -3 -8 0 -20 7 -27 7 -8 13 -20 15 -28 1
-10 -3 -9 -13 4 -8 11 -15 16 -15 12 0 -5 -8 -2 -17 5 -16 13 -17 12 -5 -3 16
-19 7 -42 -13 -34 -7 2 -16 -2 -19 -10 -3 -9 -11 -12 -16 -9 -6 4 -9 1 -8 -7
2 -8 -7 -13 -22 -13 -15 0 -24 5 -22 13 1 8 -2 11 -8 7 -5 -3 -13 0 -16 9 -3
9 -12 12 -21 9 -12 -5 -14 -3 -8 7 5 9 4 11 -3 6 -16 -10 -15 6 1 24 10 12 9
12 -5 1 -10 -7 -18 -10 -18 -5 0 4 -7 -1 -15 -12 -10 -13 -14 -14 -13 -4 2 8
8 20 15 28 7 7 10 19 7 27 -9 23 24 18 36 -5z m-29 -83 c-6 -6 -18 -12 -27
-13 -14 -2 -14 0 1 17 10 10 22 16 27 13 6 -4 6 -10 -1 -17z m223 4 c12 -14
14 -19 4 -17 -22 3 -39 17 -33 27 8 12 9 12 29 -10z m-177 -20 c10 -15 9 -22
-1 -30 -18 -15 -51 10 -43 33 9 22 29 20 44 -3z m150 3 c8 -23 -25 -48 -43
-33 -10 8 -11 15 -1 30 15 23 35 25 44 3z m-117 -26 c0 -19 -18 -43 -25 -36
-4 3 -2 16 5 27 12 24 20 27 20 9z m70 -30 c0 -14 -18 -9 -24 8 -11 28 -6 39
9 20 8 -11 15 -23 15 -28z m-170 26 c0 -8 -19 -13 -24 -6 -3 5 1 9 9 9 8 0 15
-2 15 -3z m134 -11 c8 -21 -10 -41 -24 -27 -11 11 -3 44 10 44 4 0 11 -8 14
-17z m1 -73 c3 -11 12 -20 18 -20 16 -1 74 -60 59 -60 -7 0 -12 5 -12 10 0 6
-5 10 -11 10 -8 0 -8 -5 1 -15 11 -14 7 -19 -13 -16 -4 0 -6 -4 -5 -11 2 -6
-9 -18 -23 -26 -22 -13 -30 -13 -57 -1 -18 8 -30 19 -27 26 2 7 1 12 -3 12
-19 -3 -23 2 -12 16 9 10 9 15 1 15 -6 0 -11 -4 -11 -10 0 -5 -5 -10 -12 -10
-15 0 43 59 59 60 6 0 15 9 18 20 3 11 10 20 15 20 5 0 12 -9 15 -20z m-85
-110 c6 -11 17 -20 25 -20 8 0 18 -6 22 -12 16 -25 43 -16 85 30 24 25 53 30
44 7 -3 -8 0 -20 7 -27 7 -8 13 -20 15 -28 1 -10 -3 -9 -13 4 -8 11 -15 16
-15 12 0 -5 -8 -2 -17 5 -16 13 -17 12 -5 -3 16 -19 7 -42 -13 -34 -7 2 -16
-2 -19 -10 -3 -9 -11 -12 -16 -9 -6 4 -9 1 -8 -7 2 -8 -7 -13 -22 -13 -15 0
-24 5 -22 13 1 8 -2 11 -8 7 -5 -3 -13 0 -16 9 -3 9 -12 12 -21 9 -12 -5 -14
-3 -8 7 5 9 4 11 -3 6 -16 -10 -15 6 1 24 10 12 9 12 -5 1 -10 -7 -18 -10 -18
-5 0 4 -7 -1 -15 -12 -10 -13 -14 -14 -13 -4 2 8 8 20 15 28 7 7 10 19 7 27
-9 23 24 18 36 -5z m-29 -83 c-6 -6 -18 -12 -27 -13 -14 -2 -14 0 1 17 10 10
22 16 27 13 6 -4 6 -10 -1 -17z m223 4 c12 -14 14 -19 4 -17 -22 3 -39 17 -33
27 8 12 9 12 29 -10z m-177 -20 c10 -15 9 -22 -1 -30 -18 -15 -51 10 -43 33 9
22 29 20 44 -3z m150 3 c8 -23 -25 -48 -43 -33 -10 8 -11 15 -1 30 15 23 35
25 44 3z m-117 -26 c0 -19 -18 -43 -25 -36 -4 3 -2 16 5 27 12 24 20 27 20 9z
m70 -30 c0 -14 -18 -9 -24 8 -11 28 -6 39 9 20 8 -11 15 -23 15 -28z m-170 26
c0 -8 -19 -13 -24 -6 -3 5 1 9 9 9 8 0 15 -2 15 -3z m134 -11 c8 -21 -10 -41
-24 -27 -11 11 -3 44 10 44 4 0 11 -8 14 -17z m1 -73 c3 -11 12 -20 18 -20 16
-1 74 -60 59 -60 -7 0 -12 5 -12 10 0 6 -5 10 -11 10 -8 0 -8 -5 1 -15 11 -14
7 -19 -13 -16 -4 0 -6 -4 -5 -11 2 -6 -9 -18 -23 -26 -22 -13 -30 -13 -57 -1
-18 8 -30 19 -27 26 2 7 1 12 -3 12 -19 -3 -23 2 -12 16 9 10 9 15 1 15 -6 0
-11 -4 -11 -10 0 -5 -5 -10 -12 -10 -15 0 43 59 59 60 6 0 15 9 18 20 3 11 10
20 15 20 5 0 12 -9 15 -20z m-85 -110 c6 -11 17 -20 25 -20 8 0 18 -6 22 -12
16 -25 43 -16 85 30 24 25 53 30 44 7 -3 -8 0 -20 7 -27 7 -8 13 -20 15 -28 1
-10 -3 -9 -13 4 -8 11 -15 16 -15 12 0 -5 -8 -2 -17 5 -16 13 -17 12 -5 -3 16
-19 7 -42 -13 -34 -7 2 -16 -2 -19 -10 -3 -9 -11 -12 -16 -9 -6 4 -9 1 -8 -7
2 -8 -7 -13 -22 -13 -15 0 -24 5 -22 13 1 8 -2 11 -8 7 -5 -3 -13 0 -16 9 -3
9 -12 12 -21 9 -12 -5 -14 -3 -8 7 5 9 4 11 -3 6 -16 -10 -15 6 1 24 10 12 9
12 -5 1 -10 -7 -18 -10 -18 -5 0 4 -7 -1 -15 -12 -10 -13 -14 -14 -13 -4 2 8
8 20 15 28 7 7 10 19 7 27 -9 23 24 18 36 -5z m-29 -83 c-6 -6 -18 -12 -27
-13 -14 -2 -14 0 1 17 10 10 22 16 27 13 6 -4 6 -10 -1 -17z m223 4 c12 -14
14 -19 4 -17 -22 3 -39 17 -33 27 8 12 9 12 29 -10z m-177 -20 c10 -15 9 -22
-1 -30 -18 -15 -51 10 -43 33 9 22 29 20 44 -3z m150 3 c8 -23 -25 -48 -43
-33 -10 8 -11 15 -1 30 15 23 35 25 44 3z m-117 -26 c0 -19 -18 -43 -25 -36
-4 3 -2 16 5 27 12 24 20 27 20 9z m70 -30 c0 -14 -18 -9 -24 8 -11 28 -6 39
9 20 8 -11 15 -23 15 -28z m-170 26 c0 -8 -19 -13 -24 -6 -3 5 1 9 9 9 8 0 15
-2 15 -3z m134 -11 c8 -21 -10 -41 -24 -27 -11 11 -3 44 10 44 4 0 11 -8 14
-17z m1 -73 c3 -11 12 -20 18 -20 16 -1 74 -60 59 -60 -7 0 -12 5 -12 10 0 6
-5 10 -11 10 -8 0 -8 -5 1 -15 11 -14 7 -19 -13 -16 -4 0 -6 -4 -5 -11 2 -6
-9 -18 -23 -26 -22 -13 -30 -13 -57 -1 -18 8 -30 19 -27 26 2 7 1 12 -3 12
-19 -3 -23 2 -12 16 9 10 9 15 1 15 -6 0 -11 -4 -11 -10 0 -5 -5 -10 -12 -10
-15 0 43 59 59 60 6 0 15 9 18 20 3 11 10 20 15 20 5 0 12 -9 15 -20z m-85
-110 c6 -11 17 -20 25 -20 8 0 18 -6 22 -12 16 -25 43 -16 85 30 24 25 53 30
44 7 -3 -8 0 -20 7 -27 7 -8 13 -20 15 -28 1 -10 -3 -9 -13 4 -8 11 -15 16
-15 12 0 -5 -8 -2 -17 5 -16 13 -17 12 -5 -3 16 -19 7 -42 -13 -34 -7 2 -16
-2 -19 -10 -3 -9 -11 -12 -16 -9 -6 4 -9 1 -8 -7 2 -8 -7 -13 -22 -13 -15 0
-24 5 -22 13 1 8 -2 11 -8 7 -5 -3 -13 0 -16 9 -3 9 -12 12 -21 9 -12 -5 -14
-3 -8 7 5 9 4 11 -3 6 -16 -10 -15 6 1 24 10 12 9 12 -5 1 -10 -7 -18 -10 -18
-5 0 4 -7 -1 -15 -12 -10 -13 -14 -14 -13 -4 2 8 8 20 15 28 7 7 10 19 7 27
-9 23 24 18 36 -5z m-29 -83 c-6 -6 -18 -12 -27 -13 -14 -2 -14 0 1 17 10 10
22 16 27 13 6 -4 6 -10 -1 -17z m223 4 c12 -14 14 -19 4 -17 -22 3 -39 17 -33
27 8 12 9 12 29 -10z m-177 -20 c10 -15 9 -22 -1 -30 -18 -15 -51 10 -43 33 9
22 29 20 44 -3z m150 3 c8 -23 -25 -48 -43 -33 -10 8 -11 15 -1 30 15 23 35
25 44 3z m-117 -26 c0 -19 -18 -43 -25 -36 -4 3 -2 16 5 27 12 24 20 27 20 9z
m70 -30 c0 -14 -18 -9 -24 8 -11 28 -6 39 9 20 8 -11 15 -23 15 -28z m-170 26
c0 -8 -19 -13 -24 -6 -3 5 1 9 9 9 8 0 15 -2 15 -3z m134 -11 c8 -21 -10 -41
-24 -27 -11 11 -3 44 10 44 4 0 11 -8 14 -17z m1 -73 c3 -11 12 -20 18 -20 16
-1 74 -60 59 -60 -7 0 -12 5 -12 10 0 6 -5 10 -11 10 -8 0 -8 -5 1 -15 11 -14
7 -19 -13 -16 -4 0 -6 -4 -5 -11 2 -6 -9 -18 -23 -26 -22 -13 -30 -13 -57 -1
-18 8 -30 19 -27 26 2 7 1 12 -3 12 -19 -3 -23 2 -12 16 9 10 9 15 1 15 -6 0
-11 -4 -11 -10 0 -5 -5 -10 -12 -10 -15 0 43 59 59 60 6 0 15 9 18 20 3 11 10
20 15 20 5 0 12 -9 15 -20z m-85 -110 c6 -11 17 -20 25 -20 8 0 18 -6 22 -12
16 -25 43 -16 85 30 24 25 53 30 44 7 -3 -8 0 -20 7 -27 7 -8 13 -20 15 -28 1
-10 -3 -9 -13 4 -8 11 -15 16 -15 12 0 -5 -8 -2 -17 5 -16 13 -17 12 -5 -3 16
-19 7 -42 -13 -34 -7 2 -16 -2 -19 -10 -3 -9 -11 -12 -16 -9 -6 4 -9 1 -8 -7
2 -8 -7 -13 -22 -13 -15 0 -24 5 -22 13 1 8 -2 11 -8 7 -5 -3 -13 0 -16 9 -3
9 -12 12 -21 9 -12 -5 -14 -3 -8 7 5 9 4 11 -3 6 -16 -10 -15 6 1 24 10 12 9
12 -5 1 -10 -7 -18 -10 -18 -5 0 4 -7 -1 -15 -12 -10 -13 -14 -14 -13 -4 2 8
8 20 15 28 7 7 10 19 7 27 -9 23 24 18 36 -5z m-29 -83 c-6 -6 -18 -12 -27
-13 -14 -2 -14 0 1 17 10 10 22 16 27 13 6 -4 6 -10 -1 -17z m223 4 c12 -14
14 -19 4 -17 -22 3 -39 17 -33 27 8 12 9 12 29 -10z m-177 -20 c10 -15 9 -22
-1 -30 -18 -15 -51 10 -43 33 9 22 29 20 44 -3z m150 3 c8 -23 -25 -48 -43
-33 -10 8 -11 15 -1 30 15 23 35 25 44 3z m-117 -26 c0 -19 -18 -43 -25 -36
-4 3 -2 16 5 27 12 24 20 27 20 9z m70 -30 c0 -14 -18 -9 -24 8 -11 28 -6 39
9 20 8 -11 15 -23 15 -28z m-170 26 c0 -8 -19 -13 -24 -6 -3 5 1 9 9 9 8 0 15
-2 15 -3z m134 -11 c8 -21 -10 -41 -24 -27 -11 11 -3 44 10 44 4 0 11 -8 14
-17z"/>
<path d="M90 3642 c0 -7 11 -17 25 -22 14 -5 25 -13 25 -18 0 -4 9 -8 20 -8
11 0 20 4 20 7 0 4 9 10 19 14 11 3 22 13 25 21 4 11 -1 10 -20 -5 -15 -12
-33 -21 -40 -21 -17 0 -56 21 -66 35 -5 6 -8 5 -8 -3z"/>
<path d="M410 3642 c0 -7 11 -17 25 -22 14 -5 25 -13 25 -18 0 -4 9 -8 20 -8
11 0 20 4 20 7 0 4 9 10 19 14 11 3 22 13 25 21 4 11 -1 10 -20 -5 -15 -12
-33 -21 -40 -21 -17 0 -56 21 -66 35 -5 6 -8 5 -8 -3z"/>
<path d="M730 3642 c0 -7 11 -17 25 -22 14 -5 25 -13 25 -18 0 -4 9 -8 20 -8
11 0 20 4 20 7 0 4 9 10 19 14 11 3 22 13 25 21 4 11 -1 10 -20 -5 -15 -12
-33 -21 -40 -21 -17 0 -56 21 -66 35 -5 6 -8 5 -8 -3z"/>
<path d="M1050 3642 c0 -7 11 -17 25 -22 14 -5 25 -13 25 -18 0 -4 9 -8 20 -8
11 0 20 4 20 7 0 4 9 10 19 14 11 3 22 13 25 21 4 11 -1 10 -20 -5 -15 -12
-33 -21 -40 -21 -17 0 -56 21 -66 35 -5 6 -8 5 -8 -3z"/>
<path d="M1370 3642 c0 -7 11 -17 25 -22 14 -5 25 -13 25 -18 0 -4 9 -8 20 -8
11 0 20 4 20 7 0 4 9 10 19 14 11 3 22 13 25 21 4 11 -1 10 -20 -5 -15 -12
-33 -21 -40 -21 -17 0 -56 21 -66 35 -5 6 -8 5 -8 -3z"/>
<path d="M1690 3642 c0 -7 11 -17 25 -22 14 -5 25 -13 25 -18 0 -4 9 -8 20 -8
11 0 20 4 20 7 0 4 9 10 19 14 11 3 22 13 25 21 4 11 -1 10 -20 -5 -15 -12
-33 -21 -40 -21 -17 0 -56 21 -66 35 -5 6 -8 5 -8 -3z"/>
<path d="M2284 3641 c4 -6 1 -14 -7 -17 -8 -3 -15 -15 -16 -27 -1 -12 -3 -35
-4 -52 -1 -20 2 -29 11 -27 8 1 11 -2 7 -8 -3 -6 -11 -8 -16 -5 -13 9 -11 -19
3 -33 9 -9 9 -17 -1 -35 -29 -55 16 -98 109 -105 80 -6 123 4 160 35 l31 26
22 -21 c32 -30 71 -42 137 -42 66 0 105 12 138 42 l22 21 23 -21 c32 -30 71
-42 137 -42 66 0 105 12 138 42 l22 21 23 -21 c32 -30 71 -42 138 -42 63 0
115 16 137 43 13 15 16 14 36 -6 30 -29 39 -56 22 -63 -7 -3 -14 -15 -15 -27
-1 -12 -3 -35 -4 -52 -1 -20 2 -29 11 -27 8 1 11 -2 7 -8 -3 -6 -11 -8 -16 -5
-13 9 -11 -19 3 -33 10 -10 10 -17 0 -32 -17 -29 -15 -54 8 -75 19 -17 21 -17
43 1 12 10 26 25 30 32 4 6 14 12 22 12 7 0 17 9 20 20 3 11 10 20 15 20 5 0
12 -9 15 -20 3 -11 12 -20 18 -20 16 -1 74 -60 59 -60 -7 0 -12 5 -12 10 0 6
-5 10 -11 10 -8 0 -8 -5 1 -15 11 -14 7 -19 -12 -16 -5 0 -7 -4 -5 -11 1 -6
-10 -18 -24 -26 -22 -13 -30 -13 -57 -1 -18 8 -30 19 -27 26 2 7 1 12 -3 12
-19 -3 -23 2 -12 16 7 8 9 15 6 15 -4 0 -14 -7 -22 -15 -9 -9 -11 -15 -4 -15
6 0 8 -5 4 -12 -4 -7 -3 -8 4 -4 7 4 12 2 12 -4 0 -6 11 -15 25 -20 14 -5 25
-14 25 -19 0 -22 44 -5 77 31 9 9 21 14 26 11 6 -3 7 -1 3 5 -4 7 -1 12 9 12
11 0 15 -5 11 -15 -3 -8 0 -20 7 -27 7 -8 13 -20 15 -28 1 -10 -3 -9 -13 4 -8
11 -15 16 -15 12 0 -5 -8 -2 -17 5 -16 13 -17 12 -5 -3 16 -19 7 -42 -13 -34
-7 2 -16 -2 -19 -10 -3 -9 -11 -12 -16 -9 -6 4 -9 1 -8 -7 2 -8 -7 -13 -22
-13 -15 0 -24 5 -22 13 1 8 -2 11 -8 7 -5 -3 -13 0 -16 9 -3 9 -12 12 -21 9
-12 -5 -14 -3 -8 7 5 9 4 11 -3 6 -16 -10 -15 6 1 24 10 12 9 12 -5 2 -16 -13
-35 -1 -24 16 2 4 0 14 -6 22 -8 12 -9 12 -4 -3 3 -10 0 -20 -8 -23 -7 -3 -14
-15 -15 -27 -1 -12 -3 -35 -4 -52 -1 -20 2 -29 11 -27 8 1 11 -2 7 -8 -3 -6
-11 -8 -16 -5 -13 9 -11 -19 3 -33 10 -10 10 -17 0 -32 -17 -29 -15 -54 8 -75
19 -17 21 -17 43 1 12 10 26 25 30 32 4 6 14 12 22 12 7 0 17 9 20 20 3 11 10
20 15 20 5 0 12 -9 15 -20 3 -11 12 -20 18 -20 16 -1 74 -60 59 -60 -7 0 -12
5 -12 10 0 6 -5 10 -11 10 -8 0 -8 -5 1 -15 11 -14 7 -19 -13 -16 -4 0 -6 -4
-5 -11 2 -6 -9 -18 -23 -26 -22 -13 -30 -13 -57 -1 -18 8 -30 19 -27 26 2 7 1
12 -3 12 -19 -3 -23 2 -12 16 7 8 9 15 6 15 -4 0 -14 -7 -22 -15 -9 -9 -11
-15 -4 -15 6 0 8 -5 4 -12 -4 -7 -3 -8 4 -4 7 4 12 2 12 -4 0 -6 11 -15 25
-20 14 -5 25 -14 25 -19 0 -22 44 -5 77 31 9 9 21 14 26 11 6 -3 7 -1 3 5 -4
7 -1 12 9 12 11 0 15 -5 11 -15 -3 -8 0 -20 7 -27 7 -8 13 -20 15 -28 1 -10
-3 -9 -13 4 -8 11 -15 16 -15 12 0 -5 -8 -2 -17 5 -16 13 -17 12 -5 -3 16 -19
7 -42 -13 -34 -7 2 -16 -2 -19 -10 -3 -9 -11 -12 -16 -9 -6 4 -9 1 -8 -7 2 -8
-7 -13 -22 -13 -15 0 -24 5 -22 13 1 8 -2 11 -8 7 -5 -3 -13 0 -16 9 -3 9 -12
12 -21 9 -12 -5 -14 -3 -8 7 5 9 4 11 -3 6 -16 -10 -15 6 1 24 10 12 9 12 -5
2 -16 -13 -35 -1 -24 16 2 4 0 14 -6 22 -8 12 -9 12 -4 -3 3 -10 0 -20 -8 -23
-7 -3 -14 -15 -15 -27 -1 -12 -3 -35 -4 -52 -1 -20 2 -29 11 -27 8 1 11 -2 7
-8 -3 -6 -11 -8 -16 -5 -13 9 -11 -19 3 -33 10 -10 10 -17 0 -32 -17 -29 -15
-54 8 -75 19 -17 21 -17 43 1 12 10 26 25 30 32 4 6 14 12 22 12 7 0 17 9 20
20 3 11 10 20 15 20 5 0 12 -9 15 -20 3 -11 12 -20 18 -20 16 -1 74 -60 59
-60 -7 0 -12 5 -12 10 0 6 -5 10 -11 10 -8 0 -8 -5 1 -15 11 -14 7 -19 -13
-16 -4 0 -6 -4 -5 -11 2 -6 -9 -18 -23 -26 -22 -13 -30 -13 -57 -1 -18 8 -30
19 -27 26 2 7 1 12 -3 12 -19 -3 -23 2 -12 16 16 19 3 19 -16 0 -9 -9 -11 -15
-4 -15 6 0 8 -5 4 -12 -4 -7 -3 -8 4 -4 7 4 12 2 12 -4 0 -6 11 -15 25 -20 14
-5 25 -14 25 -19 0 -22 44 -5 77 31 9 9 21 14 26 11 6 -3 7 -1 3 5 -4 7 -1 12
9 12 11 0 15 -5 11 -15 -3 -8 0 -20 7 -27 7 -8 13 -20 15 -28 1 -10 -3 -9 -13
4 -8 11 -15 16 -15 12 0 -5 -8 -2 -17 5 -16 13 -17 12 -5 -3 16 -19 7 -42 -13
-34 -7 2 -16 -2 -19 -10 -3 -9 -11 -12 -16 -9 -6 4 -9 1 -8 -7 2 -8 -7 -13
-22 -13 -15 0 -24 5 -22 13 1 8 -2 11 -8 7 -5 -3 -13 0 -16 9 -3 9 -12 12 -21
9 -12 -5 -14 -3 -8 7 5 9 4 11 -3 6 -16 -10 -15 6 1 24 10 12 9 12 -5 2 -16
-13 -35 -1 -24 16 2 4 0 14 -6 22 -8 12 -9 12 -4 -3 3 -10 0 -20 -8 -23 -7 -3
-14 -15 -15 -27 -1 -12 -3 -35 -4 -52 -1 -20 2 -29 11 -27 8 1 11 -2 7 -8 -3
-6 -11 -8 -16 -5 -13 9 -11 -19 3 -33 10 -10 10 -17 0 -32 -17 -29 -15 -54 8
-75 19 -17 21 -17 43 1 12 10 26 25 30 32 4 6 14 12 22 12 7 0 17 9 20 20 8
26 22 26 30 0 3 -11 12 -20 18 -20 16 -1 74 -60 59 -60 -7 0 -12 5 -12 10 0 6
-5 10 -11 10 -8 0 -8 -5 1 -15 11 -14 7 -19 -13 -16 -4 0 -6 -4 -5 -11 2 -6
-9 -18 -23 -26 -22 -13 -30 -13 -57 -1 -18 8 -30 19 -27 26 2 7 1 12 -3 12
-19 -3 -23 2 -12 16 16 19 3 19 -16 0 -9 -9 -11 -15 -4 -15 6 0 8 -5 4 -12 -4
-7 -3 -8 4 -4 7 4 12 2 12 -4 0 -6 11 -15 25 -20 14 -5 25 -14 25 -19 0 -22
44 -5 77 31 9 9 21 14 26 11 6 -3 7 -1 3 5 -4 7 -1 12 9 12 11 0 15 -5 11 -15
-3 -8 0 -20 7 -27 7 -8 13 -20 15 -28 1 -10 -3 -9 -13 4 -8 11 -15 16 -15 12
0 -5 -8 -2 -17 5 -16 13 -17 12 -5 -3 16 -19 7 -42 -13 -34 -7 2 -16 -2 -19
-10 -3 -9 -11 -12 -16 -9 -6 4 -9 1 -8 -7 2 -8 -7 -13 -22 -13 -15 0 -24 5
-22 13 1 8 -2 11 -8 7 -5 -3 -13 0 -16 9 -3 9 -12 12 -21 9 -12 -5 -14 -3 -8
7 5 9 4 11 -3 6 -16 -10 -15 6 1 24 10 12 9 12 -5 2 -16 -13 -35 -1 -24 16 2
4 0 14 -6 22 -8 12 -9 12 -4 -3 3 -10 0 -20 -8 -23 -7 -3 -14 -15 -15 -27 -1
-12 -3 -35 -4 -52 -1 -20 2 -29 11 -27 8 1 11 -2 7 -8 -3 -6 -11 -8 -16 -5
-13 9 -11 -19 3 -33 10 -10 10 -17 0 -32 -17 -29 -15 -54 8 -75 19 -17 21 -17
43 1 12 10 26 25 30 32 4 6 14 12 22 12 7 0 17 9 20 20 3 11 10 20 15 20 5 0
12 -9 15 -20 3 -11 12 -20 18 -20 16 -1 74 -60 59 -60 -7 0 -12 5 -12 10 0 6
-5 10 -11 10 -8 0 -8 -5 1 -15 11 -14 7 -19 -13 -16 -4 0 -6 -4 -5 -11 2 -6
-9 -18 -23 -26 -22 -13 -30 -13 -57 -1 -18 8 -30 19 -27 26 2 7 1 12 -3 12
-19 -3 -23 2 -12 16 16 19 3 19 -16 0 -9 -9 -11 -15 -4 -15 6 0 8 -5 4 -12 -4
-7 -3 -8 4 -4 7 4 12 2 12 -4 0 -6 11 -15 25 -20 14 -5 25 -14 25 -19 0 -22
44 -5 77 31 9 9 21 14 26 11 6 -3 7 -1 3 5 -4 7 -1 12 9 12 11 0 15 -5 11 -15
-3 -8 0 -20 7 -27 7 -8 13 -20 15 -28 1 -10 -3 -9 -13 4 -8 11 -15 16 -15 12
0 -5 -8 -2 -17 5 -16 13 -17 12 -5 -3 16 -19 7 -42 -13 -34 -7 2 -16 -2 -19
-10 -3 -9 -11 -12 -16 -9 -6 4 -9 1 -8 -7 2 -8 -7 -13 -22 -13 -15 0 -24 5
-22 13 1 8 -2 11 -8 7 -5 -3 -13 0 -16 9 -3 9 -12 12 -21 9 -12 -5 -14 -3 -8
7 5 9 4 11 -3 6 -16 -10 -15 6 1 24 10 12 9 12 -5 2 -16 -13 -35 -1 -24 16 2
4 0 14 -6 22 -8 12 -9 12 -4 -3 3 -10 0 -20 -8 -23 -7 -3 -14 -15 -15 -27 -1
-12 -3 -35 -4 -52 -1 -20 2 -29 11 -27 8 1 11 -2 7 -8 -3 -6 -11 -8 -16 -5
-13 9 -11 -19 3 -33 10 -10 10 -17 0 -32 -17 -29 -15 -54 8 -75 19 -17 21 -17
43 1 12 10 26 25 30 32 4 6 14 12 22 12 7 0 17 9 20 20 8 26 22 26 30 0 3 -11
12 -20 18 -20 16 -1 74 -60 59 -60 -7 0 -12 5 -12 10 0 6 -5 10 -11 10 -8 0
-8 -5 1 -15 11 -14 7 -19 -13 -16 -4 0 -6 -4 -5 -11 2 -6 -9 -18 -23 -26 -22
-13 -30 -13 -57 -1 -18 8 -30 19 -27 26 2 7 1 12 -3 12 -19 -3 -23 2 -12 16 7
8 9 15 6 15 -4 0 -14 -7 -22 -15 -9 -9 -11 -15 -4 -15 6 0 8 -5 4 -12 -4 -7
-3 -8 4 -4 7 4 12 2 12 -4 0 -6 11 -15 25 -20 14 -5 25 -14 25 -19 0 -22 44
-5 77 31 9 9 21 14 26 11 6 -3 7 -1 3 5 -4 7 -1 12 9 12 11 0 15 -5 11 -15 -3
-8 0 -20 7 -27 7 -8 13 -20 15 -28 1 -10 -3 -9 -13 4 -8 11 -15 16 -15 12 0
-5 -8 -2 -17 5 -16 13 -17 12 -5 -3 16 -19 7 -42 -13 -34 -7 2 -16 -2 -19 -10
-3 -9 -11 -12 -16 -9 -6 4 -9 1 -8 -7 2 -8 -7 -13 -22 -13 -15 0 -24 5 -22 13
1 8 -2 11 -8 7 -5 -3 -13 0 -16 9 -3 9 -12 12 -21 9 -12 -5 -14 -3 -8 7 5 9 4
11 -3 6 -16 -10 -15 6 1 24 10 12 9 12 -5 2 -16 -13 -35 -1 -24 16 2 4 0 14
-6 22 -8 12 -9 12 -4 -3 3 -10 0 -20 -8 -23 -7 -3 -14 -15 -15 -27 -1 -12 -3
-35 -4 -52 -1 -20 2 -29 11 -27 8 1 11 -2 7 -8 -3 -6 -11 -8 -16 -5 -13 9 -11
-19 3 -33 10 -10 10 -17 0 -32 -17 -29 -15 -54 8 -75 19 -17 21 -17 43 1 12
10 26 25 30 32 4 6 14 12 22 12 7 0 17 9 20 20 8 26 22 26 30 0 3 -11 12 -20
18 -20 16 -1 74 -60 59 -60 -7 0 -12 5 -12 10 0 6 -5 10 -11 10 -8 0 -8 -5 1
-15 11 -14 7 -19 -13 -16 -4 0 -6 -4 -5 -11 2 -6 -9 -18 -23 -26 -22 -13 -30
-13 -57 -1 -18 8 -30 19 -27 26 2 7 1 12 -3 12 -19 -3 -23 2 -12 16 16 19 3
19 -16 0 -9 -9 -11 -15 -4 -15 6 0 8 -5 4 -12 -4 -7 -3 -8 4 -4 7 4 12 2 12
-4 0 -6 11 -15 25 -20 14 -5 25 -14 25 -19 0 -22 44 -5 77 31 9 9 21 14 26 11
6 -3 7 -1 3 5 -4 7 -1 12 9 12 11 0 15 -5 11 -15 -3 -8 0 -20 7 -27 7 -8 13
-20 15 -28 1 -10 -3 -9 -13 4 -8 11 -15 16 -15 12 0 -5 -8 -2 -17 5 -16 13
-17 12 -5 -3 16 -19 7 -42 -13 -34 -7 2 -16 -2 -19 -10 -3 -9 -11 -12 -16 -9
-6 4 -9 1 -8 -7 2 -8 -7 -13 -22 -13 -15 0 -24 5 -22 13 1 8 -2 11 -8 7 -5 -3
-13 0 -16 9 -3 9 -12 12 -21 9 -12 -5 -14 -3 -8 7 5 9 4 11 -3 6 -16 -10 -15
6 1 24 10 12 9 12 -5 2 -16 -13 -35 -1 -24 16 2 4 0 14 -6 22 -8 12 -9 12 -4
-3 3 -10 0 -20 -8 -23 -7 -3 -14 -15 -15 -27 -1 -12 -3 -35 -4 -52 -1 -20 2
-29 11 -27 8 1 11 -2 7 -8 -3 -6 -11 -8 -16 -5 -13 9 -11 -19 3 -33 10 -10 10
-17 0 -32 -17 -29 -15 -54 8 -75 19 -17 21 -17 43 1 12 10 26 25 30 32 4 6 14
12 22 12 7 0 17 9 20 20 8 26 22 26 30 0 3 -11 12 -20 18 -20 16 -1 74 -60 59
-60 -7 0 -12 5 -12 10 0 6 -5 10 -11 10 -8 0 -8 -5 1 -15 11 -14 7 -19 -13
-16 -4 0 -6 -4 -5 -11 2 -6 -9 -18 -23 -26 -22 -13 -30 -13 -57 -1 -18 8 -30
19 -27 26 2 7 1 12 -3 12 -19 -3 -23 2 -12 16 16 19 3 19 -16 0 -9 -9 -11 -15
-4 -15 6 0 8 -5 4 -12 -4 -7 -3 -8 4 -4 7 4 12 2 12 -4 0 -6 11 -15 25 -20 14
-5 25 -14 25 -19 0 -22 44 -5 77 31 9 9 21 14 26 11 6 -3 7 -1 3 5 -4 7 -1 12
9 12 11 0 15 -5 11 -15 -3 -8 0 -20 7 -27 7 -8 13 -20 15 -28 1 -10 -3 -9 -13
4 -8 11 -15 16 -15 12 0 -5 -8 -2 -17 5 -16 13 -17 12 -5 -3 16 -19 7 -42 -13
-34 -7 2 -16 -2 -19 -10 -3 -9 -11 -12 -16 -9 -6 4 -9 1 -8 -7 2 -8 -7 -13
-22 -13 -15 0 -24 5 -22 13 1 8 -2 11 -8 7 -5 -3 -13 0 -16 9 -3 9 -12 12 -21
9 -12 -5 -14 -3 -8 7 5 9 4 11 -3 6 -16 -10 -15 6 1 24 10 12 9 12 -5 2 -16
-13 -35 -1 -24 16 2 4 0 14 -6 22 -8 12 -9 12 -4 -3 3 -10 0 -20 -8 -23 -7 -3
-14 -15 -15 -27 -1 -12 -3 -35 -4 -52 -1 -20 2 -29 11 -27 8 1 11 -2 7 -8 -3
-6 -11 -8 -16 -5 -13 9 -11 -19 3 -33 10 -10 10 -17 0 -32 -25 -41 -11 -70 48
-100 14 -7 22 -9 18 -5 -4 5 -3 14 3 22 9 9 8 13 0 13 -6 0 -11 -4 -11 -10 0
-5 -5 -10 -12 -10 -15 0 43 59 59 60 6 0 15 9 18 20 3 11 10 20 15 20 5 0 12
-9 15 -20 3 -11 12 -20 18 -20 16 -1 74 -60 59 -60 -7 0 -12 5 -12 10 0 6 -5
10 -11 10 -8 0 -9 -4 0 -13 6 -8 9 -16 6 -19 -3 -2 5 -4 17 -4 26 1 68 40 68
63 0 9 -7 25 -17 35 -15 17 -15 19 0 36 19 21 22 73 6 89 -8 8 -7 17 3 33 12
19 11 24 -9 37 -28 19 -29 39 -3 55 24 16 26 45 3 70 -15 17 -15 19 0 36 19
21 22 73 6 89 -8 8 -7 17 3 33 12 19 11 24 -9 37 -28 19 -29 39 -3 55 24 16
26 45 3 70 -15 17 -15 19 0 36 19 21 22 73 6 89 -8 8 -7 17 3 33 12 19 11 24
-9 37 -28 19 -29 39 -3 55 24 16 26 45 3 70 -15 17 -15 19 0 36 19 21 22 73 6
89 -8 8 -7 17 3 33 12 19 11 24 -9 37 -28 19 -29 39 -3 55 24 16 26 45 3 70
-15 17 -15 19 0 36 19 21 22 73 6 89 -8 8 -7 17 3 33 12 19 11 24 -9 37 -28
19 -29 39 -3 55 24 16 26 45 3 70 -15 17 -15 19 0 36 19 21 22 73 6 89 -8 8
-7 17 3 33 12 19 11 24 -9 37 -28 19 -29 39 -3 55 24 16 26 45 3 70 -15 17
-15 19 0 36 19 21 22 73 6 89 -8 8 -7 17 3 33 12 19 11 24 -9 37 -28 19 -29
39 -3 55 24 16 26 45 3 70 -15 17 -15 19 0 36 19 21 22 73 6 89 -8 8 -7 17 3
33 12 19 11 24 -9 37 -28 19 -29 39 -3 55 24 16 26 45 3 70 -15 17 -15 19 0
36 19 21 22 73 6 89 -8 8 -7 17 3 33 12 19 11 24 -9 37 -28 19 -29 39 -3 55
24 16 26 45 3 70 -15 17 -15 19 0 36 20 22 22 73 5 90 -9 9 -9 15 0 24 18 18
14 34 -12 52 -27 17 -44 6 -24 -16 7 -7 14 -20 16 -28 1 -10 -3 -9 -13 4 -8
11 -15 16 -15 12 0 -5 -8 -2 -17 5 -16 13 -17 12 -5 -3 16 -19 7 -42 -13 -34
-7 2 -16 -2 -19 -10 -3 -9 -11 -12 -16 -9 -6 4 -9 1 -8 -7 2 -8 -7 -13 -22
-13 -15 0 -24 5 -22 13 1 8 -2 11 -8 7 -5 -3 -13 0 -16 9 -3 9 -12 12 -21 9
-12 -5 -14 -3 -8 7 5 9 4 11 -3 6 -16 -10 -15 6 1 24 10 12 9 12 -5 1 -10 -7
-18 -10 -18 -5 0 4 -7 -1 -15 -12 -10 -13 -14 -14 -13 -4 2 8 9 21 16 28 20
22 3 33 -24 16 -22 -15 -26 -15 -48 0 -27 17 -44 6 -24 -16 7 -7 14 -20 16
-28 1 -10 -3 -9 -13 4 -8 11 -15 16 -15 12 0 -5 -8 -2 -17 5 -16 13 -17 12 -5
-3 16 -19 7 -42 -13 -34 -7 2 -16 -2 -19 -10 -3 -9 -11 -12 -16 -9 -6 4 -9 1
-8 -7 2 -8 -7 -13 -22 -13 -15 0 -24 5 -22 13 1 8 -2 11 -8 7 -5 -3 -13 0 -16
9 -3 9 -12 12 -21 9 -12 -5 -14 -3 -8 7 5 9 4 11 -3 6 -16 -10 -15 6 1 24 10
12 9 12 -5 1 -10 -7 -18 -10 -18 -5 0 4 -7 -1 -15 -12 -10 -13 -14 -14 -13 -4
2 8 9 21 16 28 20 22 3 33 -24 16 -22 -15 -26 -15 -48 0 -27 17 -44 6 -24 -16
7 -7 14 -20 16 -28 1 -10 -3 -9 -13 4 -8 11 -15 16 -15 12 0 -5 -8 -2 -17 5
-16 13 -17 12 -5 -3 16 -19 7 -42 -13 -34 -7 2 -16 -2 -19 -10 -3 -9 -11 -12
-16 -9 -6 4 -9 1 -8 -7 2 -8 -7 -13 -22 -13 -15 0 -24 5 -22 13 1 8 -2 11 -8
7 -5 -3 -13 0 -16 9 -3 9 -12 12 -21 9 -12 -5 -14 -3 -8 7 5 9 4 11 -3 6 -16
-10 -15 6 1 24 10 12 9 12 -5 1 -10 -7 -18 -10 -18 -5 0 4 -7 -1 -15 -12 -10
-13 -14 -14 -13 -4 2 8 9 21 16 28 20 22 3 33 -24 16 -22 -15 -26 -15 -48 0
-27 17 -44 6 -24 -16 7 -7 14 -20 16 -28 1 -10 -3 -9 -13 4 -8 11 -15 16 -15
12 0 -5 -8 -2 -17 5 -16 13 -17 12 -5 -3 16 -19 7 -42 -13 -34 -7 2 -16 -2
-19 -10 -3 -9 -11 -12 -16 -9 -6 4 -9 1 -8 -7 2 -8 -7 -13 -22 -13 -15 0 -24
5 -22 13 1 8 -2 11 -8 7 -5 -3 -13 0 -16 9 -3 9 -12 12 -21 9 -12 -5 -14 -3
-8 7 5 9 4 11 -3 6 -16 -10 -15 6 1 24 10 12 9 12 -5 1 -10 -7 -18 -10 -18 -5
0 4 -7 -1 -15 -12 -10 -13 -14 -14 -13 -4 2 8 9 21 16 28 20 22 3 33 -24 16
-22 -15 -26 -15 -48 0 -27 17 -44 6 -24 -16 7 -7 14 -20 16 -28 1 -10 -3 -9
-13 4 -8 11 -15 16 -15 12 0 -5 -8 -2 -17 5 -16 13 -17 12 -5 -3 16 -19 7 -42
-13 -34 -7 2 -16 -2 -19 -10 -3 -9 -11 -12 -16 -9 -6 4 -9 1 -8 -7 2 -8 -7
-13 -22 -13 -15 0 -24 5 -22 13 1 8 -2 11 -8 7 -5 -3 -13 0 -16 9 -3 9 -12 12
-21 9 -12 -5 -14 -3 -8 7 5 9 4 11 -3 6 -16 -10 -15 6 1 24 10 12 9 12 -5 2
-17 -14 -35 -1 -23 17 3 5 0 13 -6 17 -8 4 -9 3 -5 -5z m6 -40 c0 -6 -4 -12
-8 -15 -5 -3 -9 1 -9 9 0 8 4 15 9 15 4 0 8 -4 8 -9z m286 -22 c10 -17 -13
-36 -27 -22 -12 12 -4 33 11 33 5 0 12 -5 16 -11z m320 0 c10 -17 -13 -36 -27
-22 -12 12 -4 33 11 33 5 0 12 -5 16 -11z m320 0 c10 -17 -13 -36 -27 -22 -12
12 -4 33 11 33 5 0 12 -5 16 -11z m320 0 c10 -17 -13 -36 -27 -22 -12 12 -4
33 11 33 5 0 12 -5 16 -11z m-1235 -22 c-6 -6 -18 -12 -27 -13 -14 -2 -14 0 1
17 10 10 22 16 27 13 6 -4 6 -10 -1 -17z m223 4 c12 -14 14 -19 4 -17 -22 3
-39 17 -33 27 8 12 9 12 29 -10z m97 -4 c-6 -6 -18 -12 -27 -13 -14 -2 -14 0
1 17 10 10 22 16 27 13 6 -4 6 -10 -1 -17z m223 4 c12 -14 14 -19 4 -17 -22 3
-39 17 -33 27 8 12 9 12 29 -10z m97 -4 c-6 -6 -18 -12 -27 -13 -14 -2 -14 0
1 17 10 10 22 16 27 13 6 -4 6 -10 -1 -17z m223 4 c12 -14 14 -19 4 -17 -22 3
-39 17 -33 27 8 12 9 12 29 -10z m97 -4 c-6 -6 -18 -12 -27 -13 -14 -2 -14 0
1 17 10 10 22 16 27 13 6 -4 6 -10 -1 -17z m223 4 c12 -14 14 -19 4 -17 -22 3
-39 17 -33 27 8 12 9 12 29 -10z m97 -4 c-6 -6 -18 -12 -27 -13 -14 -2 -14 0
1 17 10 10 22 16 27 13 6 -4 6 -10 -1 -17z m223 4 c12 -14 14 -19 4 -17 -22 3
-39 17 -33 27 8 12 9 12 29 -10z m-1457 -20 c10 -15 9 -22 -1 -30 -18 -15 -51
10 -43 33 9 22 29 20 44 -3z m150 3 c8 -23 -25 -48 -43 -33 -10 8 -11 15 -1
30 15 23 35 25 44 3z m170 -3 c10 -15 9 -22 -1 -30 -18 -15 -51 10 -43 33 9
22 29 20 44 -3z m150 3 c8 -23 -25 -48 -43 -33 -10 8 -11 15 -1 30 15 23 35
25 44 3z m170 -3 c10 -15 9 -22 -1 -30 -18 -15 -51 10 -43 33 9 22 29 20 44
-3z m150 3 c8 -23 -25 -48 -43 -33 -10 8 -11 15 -1 30 15 23 35 25 44 3z m170
-3 c10 -15 9 -22 -1 -30 -18 -15 -51 10 -43 33 9 22 29 20 44 -3z m150 3 c8
-23 -25 -48 -43 -33 -10 8 -11 15 -1 30 15 23 35 25 44 3z m170 -3 c10 -15 9
-22 -1 -30 -18 -15 -51 10 -43 33 9 22 29 20 44 -3z m150 3 c8 -23 -25 -48
-43 -33 -10 8 -11 15 -1 30 15 23 35 25 44 3z m-1397 -26 c0 -19 -18 -43 -25
-36 -4 3 -2 16 5 27 12 24 20 27 20 9z m70 -30 c0 -14 -18 -9 -24 8 -11 28 -6
39 9 20 8 -11 15 -23 15 -28z m250 30 c0 -19 -18 -43 -25 -36 -4 3 -2 16 5 27
12 24 20 27 20 9z m70 -30 c0 -14 -18 -9 -24 8 -11 28 -6 39 9 20 8 -11 15
-23 15 -28z m250 30 c0 -19 -18 -43 -25 -36 -4 3 -2 16 5 27 12 24 20 27 20 9z
m70 -30 c0 -14 -18 -9 -24 8 -11 28 -6 39 9 20 8 -11 15 -23 15 -28z m250 30
c0 -19 -18 -43 -25 -36 -4 3 -2 16 5 27 12 24 20 27 20 9z m70 -30 c0 -14 -18
-9 -24 8 -11 28 -6 39 9 20 8 -11 15 -23 15 -28z m250 30 c0 -19 -18 -43 -25
-36 -4 3 -2 16 5 27 12 24 20 27 20 9z m70 -30 c0 -14 -18 -9 -24 8 -11 28 -6
39 9 20 8 -11 15 -23 15 -28z m-1316 15 c8 -21 -10 -41 -24 -27 -11 11 -3 44
10 44 4 0 11 -8 14 -17z m186 11 c0 -8 -19 -13 -24 -6 -3 5 1 9 9 9 8 0 15 -2
15 -3z m134 -11 c8 -21 -10 -41 -24 -27 -11 11 -3 44 10 44 4 0 11 -8 14 -17z
m186 11 c0 -8 -19 -13 -24 -6 -3 5 1 9 9 9 8 0 15 -2 15 -3z m134 -11 c8 -21
-10 -41 -24 -27 -11 11 -3 44 10 44 4 0 11 -8 14 -17z m186 11 c0 -8 -19 -13
-24 -6 -3 5 1 9 9 9 8 0 15 -2 15 -3z m134 -11 c8 -21 -10 -41 -24 -27 -11 11
-3 44 10 44 4 0 11 -8 14 -17z m186 11 c0 -8 -19 -13 -24 -6 -3 5 1 9 9 9 8 0
15 -2 15 -3z m134 -11 c8 -21 -10 -41 -24 -27 -11 11 -3 44 10 44 4 0 11 -8
14 -17z m-1114 -39 c11 -12 10 -18 -3 -32 -16 -15 -18 -15 -34 0 -13 14 -14
20 -3 32 7 9 16 16 20 16 4 0 13 -7 20 -16z m320 0 c11 -12 10 -18 -3 -32 -16
-15 -18 -15 -34 0 -13 14 -14 20 -3 32 7 9 16 16 20 16 4 0 13 -7 20 -16z
m320 0 c11 -12 10 -18 -3 -32 -16 -15 -18 -15 -34 0 -13 14 -14 20 -3 32 7 9
16 16 20 16 4 0 13 -7 20 -16z m320 0 c11 -12 10 -18 -3 -32 -16 -15 -18 -15
-34 0 -13 14 -14 20 -3 32 7 9 16 16 20 16 4 0 13 -7 20 -16z m155 -34 c3 -11
12 -20 18 -20 16 -1 74 -60 59 -60 -7 0 -12 5 -12 10 0 6 -5 10 -11 10 -8 0
-8 -5 1 -15 11 -14 7 -19 -12 -16 -5 0 -7 -4 -5 -11 1 -6 -10 -18 -24 -26 -22
-13 -30 -13 -57 -1 -18 8 -30 19 -27 26 2 7 1 12 -3 12 -19 -3 -23 2 -12 16 9
10 9 15 1 15 -6 0 -11 -4 -11 -10 0 -5 -5 -10 -12 -10 -15 0 43 59 59 60 6 0
15 9 18 20 3 11 10 20 15 20 5 0 12 -9 15 -20z m-85 -110 c6 -11 17 -20 25
-20 8 0 18 -6 22 -12 16 -25 43 -16 85 30 24 25 53 30 44 7 -3 -8 0 -20 7 -27
7 -8 13 -20 15 -28 1 -10 -3 -9 -13 4 -8 11 -15 16 -15 12 0 -5 -8 -2 -17 5
-16 13 -17 12 -5 -3 16 -19 7 -42 -13 -34 -7 2 -16 -2 -19 -10 -3 -9 -11 -12
-16 -9 -6 4 -9 1 -8 -7 2 -8 -7 -13 -22 -13 -15 0 -24 5 -22 13 1 8 -2 11 -8
7 -5 -3 -13 0 -16 9 -3 9 -12 12 -21 9 -12 -5 -14 -3 -8 7 5 9 4 11 -3 6 -16
-10 -15 6 1 24 10 12 9 12 -5 1 -10 -7 -18 -10 -18 -5 0 4 -7 -1 -15 -12 -10
-13 -14 -14 -13 -4 2 8 8 20 15 28 7 7 10 19 7 27 -9 23 24 18 36 -5z m-29
-83 c-6 -6 -18 -12 -27 -13 -14 -2 -14 0 1 17 10 10 22 16 27 13 6 -4 6 -10
-1 -17z m223 4 c12 -14 14 -19 4 -17 -22 3 -39 17 -33 27 8 12 9 12 29 -10z
m-177 -20 c10 -15 9 -22 -1 -30 -18 -15 -51 10 -43 33 9 22 29 20 44 -3z m150
3 c8 -23 -25 -48 -43 -33 -10 8 -11 15 -1 30 15 23 35 25 44 3z m-117 -26 c0
-19 -18 -43 -25 -36 -4 3 -2 16 5 27 12 24 20 27 20 9z m70 -30 c0 -14 -18 -9
-24 8 -11 28 -6 39 9 20 8 -11 15 -23 15 -28z m-36 15 c8 -21 -10 -41 -24 -27
-11 11 -3 44 10 44 4 0 11 -8 14 -17z m-124 -222 c0 -6 -4 -12 -8 -15 -5 -3
-9 1 -9 9 0 8 4 15 9 15 4 0 8 -4 8 -9z m11 -44 c-6 -6 -18 -12 -27 -13 -14
-2 -14 0 1 17 10 10 22 16 27 13 6 -4 6 -10 -1 -17z m223 4 c12 -14 14 -19 4
-17 -22 3 -39 17 -33 27 8 12 9 12 29 -10z m-177 -20 c10 -15 9 -22 -1 -30
-18 -15 -51 10 -43 33 9 22 29 20 44 -3z m150 3 c8 -23 -25 -48 -43 -33 -10 8
-11 15 -1 30 15 23 35 25 44 3z m-117 -26 c0 -19 -18 -43 -25 -36 -4 3 -2 16
5 27 12 24 20 27 20 9z m70 -30 c0 -14 -18 -9 -24 8 -11 28 -6 39 9 20 8 -11
15 -23 15 -28z m-36 15 c8 -21 -10 -41 -24 -27 -11 11 -3 44 10 44 4 0 11 -8
14 -17z m-124 -222 c0 -6 -4 -12 -8 -15 -5 -3 -9 1 -9 9 0 8 4 15 9 15 4 0 8
-4 8 -9z m11 -44 c-6 -6 -18 -12 -27 -13 -14 -2 -14 0 1 17 10 10 22 16 27 13
6 -4 6 -10 -1 -17z m223 4 c12 -14 14 -19 4 -17 -22 3 -39 17 -33 27 8 12 9
12 29 -10z m-177 -20 c10 -15 9 -22 -1 -30 -18 -15 -51 10 -43 33 9 22 29 20
44 -3z m150 3 c8 -23 -25 -48 -43 -33 -10 8 -11 15 -1 30 15 23 35 25 44 3z
m-117 -26 c0 -19 -18 -43 -25 -36 -4 3 -2 16 5 27 12 24 20 27 20 9z m70 -30
c0 -14 -18 -9 -24 8 -11 28 -6 39 9 20 8 -11 15 -23 15 -28z m-36 15 c8 -21
-10 -41 -24 -27 -11 11 -3 44 10 44 4 0 11 -8 14 -17z m-124 -222 c0 -6 -4
-12 -8 -15 -5 -3 -9 1 -9 9 0 8 4 15 9 15 4 0 8 -4 8 -9z m11 -44 c-6 -6 -18
-12 -27 -13 -14 -2 -14 0 1 17 10 10 22 16 27 13 6 -4 6 -10 -1 -17z m223 4
c12 -14 14 -19 4 -17 -22 3 -39 17 -33 27 8 12 9 12 29 -10z m-177 -20 c10
-15 9 -22 -1 -30 -18 -15 -51 10 -43 33 9 22 29 20 44 -3z m150 3 c8 -23 -25
-48 -43 -33 -10 8 -11 15 -1 30 15 23 35 25 44 3z m-117 -26 c0 -19 -18 -43
-25 -36 -4 3 -2 16 5 27 12 24 20 27 20 9z m70 -30 c0 -14 -18 -9 -24 8 -11
28 -6 39 9 20 8 -11 15 -23 15 -28z m-36 15 c8 -21 -10 -41 -24 -27 -11 11 -3
44 10 44 4 0 11 -8 14 -17z m-124 -222 c0 -6 -4 -12 -8 -15 -5 -3 -9 1 -9 9 0
8 4 15 9 15 4 0 8 -4 8 -9z m11 -44 c-6 -6 -18 -12 -27 -13 -14 -2 -14 0 1 17
10 10 22 16 27 13 6 -4 6 -10 -1 -17z m223 4 c12 -14 14 -19 4 -17 -22 3 -39
17 -33 27 8 12 9 12 29 -10z m-177 -20 c10 -15 9 -22 -1 -30 -18 -15 -51 10
-43 33 9 22 29 20 44 -3z m150 3 c8 -23 -25 -48 -43 -33 -10 8 -11 15 -1 30
15 23 35 25 44 3z m-117 -26 c0 -19 -18 -43 -25 -36 -4 3 -2 16 5 27 12 24 20
27 20 9z m70 -30 c0 -14 -18 -9 -24 8 -11 28 -6 39 9 20 8 -11 15 -23 15 -28z
m-36 15 c8 -21 -10 -41 -24 -27 -11 11 -3 44 10 44 4 0 11 -8 14 -17z m-124
-222 c0 -6 -4 -12 -8 -15 -5 -3 -9 1 -9 9 0 8 4 15 9 15 4 0 8 -4 8 -9z m11
-44 c-6 -6 -18 -12 -27 -13 -14 -2 -14 0 1 17 10 10 22 16 27 13 6 -4 6 -10
-1 -17z m223 4 c12 -14 14 -19 4 -17 -22 3 -39 17 -33 27 8 12 9 12 29 -10z
m-177 -20 c10 -15 9 -22 -1 -30 -18 -15 -51 10 -43 33 9 22 29 20 44 -3z m150
3 c8 -23 -25 -48 -43 -33 -10 8 -11 15 -1 30 15 23 35 25 44 3z m-117 -26 c0
-19 -18 -43 -25 -36 -4 3 -2 16 5 27 12 24 20 27 20 9z m70 -30 c0 -14 -18 -9
-24 8 -11 28 -6 39 9 20 8 -11 15 -23 15 -28z m-36 15 c8 -21 -10 -41 -24 -27
-11 11 -3 44 10 44 4 0 11 -8 14 -17z m-124 -222 c0 -6 -4 -12 -8 -15 -5 -3
-9 1 -9 9 0 8 4 15 9 15 4 0 8 -4 8 -9z m11 -44 c-6 -6 -18 -12 -27 -13 -14
-2 -14 0 1 17 10 10 22 16 27 13 6 -4 6 -10 -1 -17z m223 4 c12 -14 14 -19 4
-17 -22 3 -39 17 -33 27 8 12 9 12 29 -10z m-177 -20 c10 -15 9 -22 -1 -30
-18 -15 -51 10 -43 33 9 22 29 20 44 -3z m150 3 c8 -23 -25 -48 -43 -33 -10 8
-11 15 -1 30 15 23 35 25 44 3z m-117 -26 c0 -19 -18 -43 -25 -36 -4 3 -2 16
5 27 12 24 20 27 20 9z m70 -30 c0 -14 -18 -9 -24 8 -11 28 -6 39 9 20 8 -11
15 -23 15 -28z m-36 15 c8 -21 -10 -41 -24 -27 -11 11 -3 44 10 44 4 0 11 -8
14 -17z m-124 -222 c0 -6 -4 -12 -8 -15 -5 -3 -9 1 -9 9 0 8 4 15 9 15 4 0 8
-4 8 -9z m11 -44 c-6 -6 -18 -12 -27 -13 -14 -2 -14 0 1 17 10 10 22 16 27 13
6 -4 6 -10 -1 -17z m223 4 c12 -14 14 -19 4 -17 -22 3 -39 17 -33 27 8 12 9
12 29 -10z m-177 -20 c10 -15 9 -22 -1 -30 -18 -15 -51 10 -43 33 9 22 29 20
44 -3z m150 3 c8 -23 -25 -48 -43 -33 -10 8 -11 15 -1 30 15 23 35 25 44 3z
m-117 -26 c0 -19 -18 -43 -25 -36 -4 3 -2 16 5 27 12 24 20 27 20 9z m70 -30
c0 -14 -18 -9 -24 8 -11 28 -6 39 9 20 8 -11 15 -23 15 -28z m-36 15 c8 -21
-10 -41 -24 -27 -11 11 -3 44 10 44 4 0 11 -8 14 -17z m-124 -222 c0 -6 -4
-12 -8 -15 -5 -3 -9 1 -9 9 0 8 4 15 9 15 4 0 8 -4 8 -9z m11 -44 c-6 -6 -18
-12 -27 -13 -14 -2 -14 0 1 17 10 10 22 16 27 13 6 -4 6 -10 -1 -17z m223 4
c12 -14 14 -19 4 -17 -22 3 -39 17 -33 27 8 12 9 12 29 -10z m-177 -20 c10
-15 9 -22 -1 -30 -18 -15 -51 10 -43 33 9 22 29 20 44 -3z m150 3 c8 -23 -25
-48 -43 -33 -10 8 -11 15 -1 30 15 23 35 25 44 3z m-117 -26 c0 -19 -18 -43
-25 -36 -4 3 -2 16 5 27 12 24 20 27 20 9z m70 -30 c0 -14 -18 -9 -24 8 -11
28 -6 39 9 20 8 -11 15 -23 15 -28z m-36 15 c8 -21 -10 -41 -24 -27 -11 11 -3
44 10 44 4 0 11 -8 14 -17z"/>
<path d="M2330 3642 c0 -7 11 -17 25 -22 14 -5 25 -13 25 -18 0 -4 9 -8 20 -8
11 0 20 4 20 7 0 4 9 10 19 14 11 3 22 13 25 21 4 11 -1 10 -20 -5 -15 -12
-33 -21 -40 -21 -17 0 -56 21 -66 35 -5 6 -8 5 -8 -3z"/>
<path d="M2650 3642 c0 -7 11 -17 25 -22 14 -5 25 -13 25 -18 0 -4 9 -8 20 -8
11 0 20 4 20 7 0 4 9 10 19 14 11 3 22 13 25 21 4 11 -1 10 -20 -5 -15 -12
-33 -21 -40 -21 -17 0 -56 21 -66 35 -5 6 -8 5 -8 -3z"/>
<path d="M2970 3642 c0 -7 11 -17 25 -22 14 -5 25 -13 25 -18 0 -4 9 -8 20 -8
11 0 20 4 20 7 0 4 9 10 19 14 11 3 22 13 25 21 4 11 -1 10 -20 -5 -15 -12
-33 -21 -40 -21 -17 0 -56 21 -66 35 -5 6 -8 5 -8 -3z"/>
<path d="M3290 3642 c0 -7 11 -17 25 -22 14 -5 25 -13 25 -18 0 -4 9 -8 20 -8
11 0 20 4 20 7 0 4 9 10 19 14 11 3 22 13 25 21 4 11 -1 10 -20 -5 -15 -12
-33 -21 -40 -21 -17 0 -56 21 -66 35 -5 6 -8 5 -8 -3z"/>
<path d="M3610 3642 c0 -7 11 -17 25 -22 14 -5 25 -13 25 -18 0 -4 9 -8 20 -8
11 0 20 4 20 7 0 4 9 10 19 14 11 3 22 13 25 21 4 11 -1 10 -20 -5 -15 -12
-33 -21 -40 -21 -17 0 -56 21 -66 35 -5 6 -8 5 -8 -3z"/>
<path d="M858 3059 l-58 -29 0 -89 c0 -48 3 -196 7 -329 l6 -242 394 0 393 0
0 330 0 330 -60 30 -59 30 -283 0 -283 -1 -57 -30z m612 -134 l0 -155 -275 0
-275 0 0 155 0 155 275 0 275 0 0 -155z m-560 -4 c0 -123 -3 -150 -15 -155
-13 -5 -15 15 -15 143 0 81 3 151 7 154 19 20 23 -6 23 -142z m-40 -20 c0
-123 -3 -150 -15 -155 -13 -5 -15 15 -15 143 0 81 3 151 7 154 19 20 23 -6 23
-142z m-40 -21 c0 -93 -4 -150 -10 -150 -6 0 -10 57 -10 150 0 93 4 150 10
150 6 0 10 -57 10 -150z m690 -180 c0 -5 9 -10 20 -10 19 0 20 -7 20 -145 0
-122 -2 -145 -15 -145 -8 0 -16 8 -16 18 -1 16 -2 16 -6 0 -4 -16 -22 -18
-204 -18 l-199 0 0 70 0 70 -80 0 -80 0 0 -70 0 -70 -40 0 c-31 0 -40 4 -41
18 -1 16 -2 16 -6 0 -2 -10 -13 -18 -24 -18 -18 0 -19 9 -19 145 l0 145 25 0
c14 0 25 5 25 10 0 6 113 10 320 10 207 0 320 -4 320 -10z m-430 -220 c0 -17
-7 -20 -50 -20 -43 0 -50 3 -50 20 0 17 7 20 50 20 43 0 50 -3 50 -20z m20
-16 l0 -36 -60 4 c-34 2 -62 -1 -64 -7 -2 -5 -7 -6 -12 -2 -15 14 19 27 74 27
49 0 52 2 52 25 0 14 2 25 5 25 3 0 5 -16 5 -36z"/>
<path d="M940 3040 c0 -6 93 -10 260 -10 167 0 260 4 260 10 0 6 -93 10 -260
10 -167 0 -260 -4 -260 -10z"/>
<path d="M940 2970 c0 -6 92 -10 255 -10 163 0 255 4 255 10 0 6 -92 10 -255
10 -163 0 -255 -4 -255 -10z"/>
<path d="M940 2890 c0 -6 92 -10 255 -10 163 0 255 4 255 10 0 6 -92 10 -255
10 -163 0 -255 -4 -255 -10z"/>
<path d="M940 2810 c0 -6 92 -10 255 -10 163 0 255 4 255 10 0 6 -92 10 -255
10 -163 0 -255 -4 -255 -10z"/>
<path d="M970 2645 l0 -45 110 0 110 0 0 45 0 45 -110 0 -110 0 0 -45z m100 0
c0 -35 0 -35 -45 -35 -45 0 -45 0 -45 35 0 35 0 35 45 35 45 0 45 0 45 -35z
m110 0 c0 -35 0 -35 -45 -35 -45 0 -45 0 -45 35 0 35 0 35 45 35 45 0 45 0 45
-35z"/>
<path d="M1210 2645 l0 -45 110 0 110 0 0 45 0 45 -110 0 -110 0 0 -45z m100
0 c0 -35 0 -35 -45 -35 -45 0 -45 0 -45 35 0 35 0 35 45 35 45 0 45 0 45 -35z
m110 0 c0 -35 0 -35 -45 -35 -45 0 -45 0 -45 35 0 35 0 35 45 35 45 0 45 0 45
-35z"/>
<path d="M1038 2553 c89 -2 235 -2 325 0 89 1 16 3 -163 3 -179 0 -252 -2
-162 -3z"/>
<path d="M1210 2485 l0 -45 110 0 110 0 0 45 0 45 -110 0 -110 0 0 -45z m100
0 c0 -35 0 -35 -45 -35 -45 0 -45 0 -45 35 0 35 0 35 45 35 45 0 45 0 45 -35z
m110 0 c0 -35 0 -35 -45 -35 -45 0 -45 0 -45 35 0 35 0 35 45 35 45 0 45 0 45
-35z"/>
<path d="M2298 3059 l-58 -29 0 -89 c0 -48 3 -196 7 -329 l6 -242 394 0 393 0
0 330 0 330 -60 30 -59 30 -283 0 -283 -1 -57 -30z m612 -134 l0 -155 -275 0
-275 0 0 155 0 155 275 0 275 0 0 -155z m-560 -4 c0 -123 -3 -150 -15 -155
-13 -5 -15 15 -15 143 0 81 3 151 7 154 19 20 23 -6 23 -142z m-40 -20 c0
-123 -3 -150 -15 -155 -13 -5 -15 15 -15 143 0 81 3 151 7 154 19 20 23 -6 23
-142z m-40 -21 c0 -93 -4 -150 -10 -150 -6 0 -10 57 -10 150 0 93 4 150 10
150 6 0 10 -57 10 -150z m690 -180 c0 -5 9 -10 20 -10 19 0 20 -7 20 -145 0
-122 -2 -145 -15 -145 -8 0 -16 8 -16 18 -1 16 -2 16 -6 0 -4 -16 -22 -18
-204 -18 l-199 0 0 70 0 70 -80 0 -80 0 0 -70 0 -70 -40 0 c-31 0 -40 4 -41
18 -1 16 -2 16 -6 0 -2 -10 -13 -18 -24 -18 -18 0 -19 9 -19 145 l0 145 25 0
c14 0 25 5 25 10 0 6 113 10 320 10 207 0 320 -4 320 -10z m-430 -220 c0 -17
-7 -20 -50 -20 -43 0 -50 3 -50 20 0 17 7 20 50 20 43 0 50 -3 50 -20z m20
-16 l0 -36 -60 4 c-34 2 -62 -1 -64 -7 -2 -5 -7 -6 -12 -2 -15 14 19 27 74 27
49 0 52 2 52 25 0 14 2 25 5 25 3 0 5 -16 5 -36z"/>
<path d="M2380 3040 c0 -6 93 -10 260 -10 167 0 260 4 260 10 0 6 -93 10 -260
10 -167 0 -260 -4 -260 -10z"/>
<path d="M2380 2970 c0 -6 92 -10 255 -10 163 0 255 4 255 10 0 6 -92 10 -255
10 -163 0 -255 -4 -255 -10z"/>
<path d="M2380 2890 c0 -6 92 -10 255 -10 163 0 255 4 255 10 0 6 -92 10 -255
10 -163 0 -255 -4 -255 -10z"/>
<path d="M2380 2810 c0 -6 92 -10 255 -10 163 0 255 4 255 10 0 6 -92 10 -255
10 -163 0 -255 -4 -255 -10z"/>
<path d="M2410 2645 l0 -45 110 0 110 0 0 45 0 45 -110 0 -110 0 0 -45z m100
0 c0 -35 0 -35 -45 -35 -45 0 -45 0 -45 35 0 35 0 35 45 35 45 0 45 0 45 -35z
m110 0 c0 -35 0 -35 -45 -35 -45 0 -45 0 -45 35 0 35 0 35 45 35 45 0 45 0 45
-35z"/>
<path d="M2650 2645 l0 -45 110 0 110 0 0 45 0 45 -110 0 -110 0 0 -45z m100
0 c0 -35 0 -35 -45 -35 -45 0 -45 0 -45 35 0 35 0 35 45 35 45 0 45 0 45 -35z
m110 0 c0 -35 0 -35 -45 -35 -45 0 -45 0 -45 35 0 35 0 35 45 35 45 0 45 0 45
-35z"/>
<path d="M2478 2553 c89 -2 235 -2 325 0 89 1 16 3 -163 3 -179 0 -252 -2
-162 -3z"/>
<path d="M2650 2485 l0 -45 110 0 110 0 0 45 0 45 -110 0 -110 0 0 -45z m100
0 c0 -35 0 -35 -45 -35 -45 0 -45 0 -45 35 0 35 0 35 45 35 45 0 45 0 45 -35z
m110 0 c0 -35 0 -35 -45 -35 -45 0 -45 0 -45 35 0 35 0 35 45 35 45 0 45 0 45
-35z"/>
<path d="M680 2570 c-16 -16 -20 -33 -20 -84 0 -36 4 -76 10 -91 9 -24 14 -26
57 -23 l48 3 3 87 c2 77 0 90 -18 108 -25 25 -54 26 -80 0z m74 -6 c19 -19 22
-79 4 -68 -10 6 -10 4 0 -7 6 -7 12 -26 12 -41 0 -27 -2 -28 -50 -28 -48 0
-50 1 -50 28 0 15 6 34 13 41 10 11 10 13 0 7 -19 -11 -16 49 3 68 8 9 24 16
34 16 10 0 26 -7 34 -16z"/>
<path d="M703 2473 c9 -2 25 -2 35 0 9 3 1 5 -18 5 -19 0 -27 -2 -17 -5z"/>
<path d="M2120 2570 c-16 -16 -20 -33 -20 -84 0 -36 4 -76 10 -91 9 -24 14
-26 57 -23 l48 3 3 87 c2 77 0 90 -18 108 -25 25 -54 26 -80 0z m74 -6 c19
-19 22 -79 4 -68 -10 6 -10 4 0 -7 6 -7 12 -26 12 -41 0 -27 -2 -28 -50 -28
-48 0 -50 1 -50 28 0 15 6 34 13 41 10 11 10 13 0 7 -19 -11 -16 49 3 68 8 9
24 16 34 16 10 0 26 -7 34 -16z"/>
<path d="M2143 2473 c9 -2 25 -2 35 0 9 3 1 5 -18 5 -19 0 -27 -2 -17 -5z"/>
<path d="M2087 2123 c-4 -3 -7 -165 -7 -360 l0 -353 560 0 560 0 -2 358 -3
357 -551 3 c-303 1 -554 -1 -557 -5z m1098 -173 l0 -165 -542 -3 -542 -2 -4
-23 c-2 -12 -5 62 -6 164 0 102 2 189 6 192 3 4 250 6 547 5 l541 -3 0 -165z
m-15 -375 l0 -145 -225 0 -225 0 0 75 0 75 -80 0 -80 0 0 -75 0 -75 -230 0
-230 0 0 145 0 145 535 0 535 0 0 -145z m-577 -45 c-7 -28 14 -50 47 -50 33 0
54 22 47 50 -3 13 0 20 9 20 10 0 14 -14 14 -55 l0 -55 -72 0 c-66 0 -70 1
-52 15 18 14 18 16 2 29 -22 16 -24 66 -4 66 9 0 12 -7 9 -20z m82 -10 c0 -21
-5 -26 -33 -28 -34 -3 -50 14 -38 44 4 10 16 14 38 12 28 -2 33 -7 33 -28z
m-85 -50 c0 -5 -4 -10 -10 -10 -5 0 -10 5 -10 10 0 6 5 10 10 10 6 0 10 -4 10
-10z"/>
<path d="M2520 2101 l-405 -6 0 -145 0 -145 525 0 525 0 3 139 c1 77 -1 143
-5 147 -13 13 -215 16 -643 10z m530 -71 l0 -70 -65 0 -65 0 0 70 0 70 65 0
65 0 0 -70z m-850 0 c0 -16 -7 -20 -35 -20 -28 0 -35 4 -35 20 0 16 7 20 35
20 28 0 35 -4 35 -20z m80 0 c0 -16 -7 -20 -35 -20 -28 0 -35 4 -35 20 0 16 7
20 35 20 28 0 35 -4 35 -20z m80 0 c0 -16 -7 -20 -35 -20 -28 0 -35 4 -35 20
0 16 7 20 35 20 28 0 35 -4 35 -20z m80 0 c0 -16 -7 -20 -35 -20 -28 0 -35 4
-35 20 0 16 7 20 35 20 28 0 35 -4 35 -20z m80 0 c0 -16 -7 -20 -35 -20 -28 0
-35 4 -35 20 0 16 7 20 35 20 28 0 35 -4 35 -20z m80 0 c0 -16 -7 -20 -35 -20
-28 0 -35 4 -35 20 0 16 7 20 35 20 28 0 35 -4 35 -20z m80 0 c0 -16 -7 -20
-35 -20 -28 0 -35 4 -35 20 0 16 7 20 35 20 28 0 35 -4 35 -20z m80 0 c0 -16
-7 -20 -35 -20 -28 0 -35 4 -35 20 0 16 7 20 35 20 28 0 35 -4 35 -20z m80 0
c0 -16 -7 -20 -35 -20 -28 0 -35 4 -35 20 0 16 7 20 35 20 28 0 35 -4 35 -20z
m40 0 c0 -11 -7 -20 -15 -20 -8 0 -15 9 -15 20 0 11 7 20 15 20 8 0 15 -9 15
-20z m30 10 c0 -5 -2 -10 -4 -10 -3 0 -8 5 -11 10 -3 6 -1 10 4 10 6 0 11 -4
11 -10z m180 6 c0 -3 -4 -8 -10 -11 -5 -3 -10 -1 -10 4 0 6 5 11 10 11 6 0 10
-2 10 -4z m60 -16 c0 -11 -7 -20 -15 -20 -8 0 -15 9 -15 20 0 11 7 20 15 20 8
0 15 -9 15 -20z m-950 -65 c0 -33 -2 -35 -35 -35 -33 0 -35 2 -35 35 0 33 2
35 35 35 33 0 35 -2 35 -35z m80 0 c0 -33 -2 -35 -35 -35 -33 0 -35 2 -35 35
0 33 2 35 35 35 33 0 35 -2 35 -35z m80 0 c0 -33 -2 -35 -35 -35 -33 0 -35 2
-35 35 0 33 2 35 35 35 33 0 35 -2 35 -35z m80 0 c0 -33 -2 -35 -35 -35 -33 0
-35 2 -35 35 0 33 2 35 35 35 33 0 35 -2 35 -35z m80 0 c0 -33 -2 -35 -35 -35
-33 0 -35 2 -35 35 0 33 2 35 35 35 33 0 35 -2 35 -35z m80 0 c0 -33 -2 -35
-35 -35 -33 0 -35 2 -35 35 0 33 2 35 35 35 33 0 35 -2 35 -35z m80 0 c0 -33
-2 -35 -35 -35 -33 0 -35 2 -35 35 0 33 2 35 35 35 33 0 35 -2 35 -35z m80 0
c0 -33 -2 -35 -35 -35 -33 0 -35 2 -35 35 0 33 2 35 35 35 33 0 35 -2 35 -35z
m80 0 c0 -33 -2 -35 -35 -35 -33 0 -35 2 -35 35 0 33 2 35 35 35 33 0 35 -2
35 -35z m40 0 c0 -24 -5 -35 -15 -35 -10 0 -15 11 -15 35 0 24 5 35 15 35 10
0 15 -11 15 -35z m270 0 c0 -24 -5 -35 -15 -35 -10 0 -15 11 -15 35 0 24 5 35
15 35 10 0 15 -11 15 -35z m-950 -80 c0 -33 -2 -35 -35 -35 -33 0 -35 2 -35
35 0 33 2 35 35 35 33 0 35 -2 35 -35z m80 0 c0 -33 -2 -35 -35 -35 -33 0 -35
2 -35 35 0 33 2 35 35 35 33 0 35 -2 35 -35z m80 0 c0 -33 -2 -35 -35 -35 -33
0 -35 2 -35 35 0 33 2 35 35 35 33 0 35 -2 35 -35z m80 0 c0 -33 -2 -35 -35
-35 -33 0 -35 2 -35 35 0 33 2 35 35 35 33 0 35 -2 35 -35z m80 0 c0 -33 -2
-35 -35 -35 -33 0 -35 2 -35 35 0 33 2 35 35 35 33 0 35 -2 35 -35z m80 0 c0
-33 -2 -35 -35 -35 -33 0 -35 2 -35 35 0 33 2 35 35 35 33 0 35 -2 35 -35z
m80 0 c0 -33 -2 -35 -35 -35 -33 0 -35 2 -35 35 0 33 2 35 35 35 33 0 35 -2
35 -35z m80 0 c0 -33 -2 -35 -35 -35 -33 0 -35 2 -35 35 0 33 2 35 35 35 33 0
35 -2 35 -35z m80 0 c0 -33 -2 -35 -35 -35 -33 0 -35 2 -35 35 0 33 2 35 35
35 33 0 35 -2 35 -35z m40 0 c0 -24 -5 -35 -15 -35 -10 0 -15 11 -15 35 0 24
5 35 15 35 10 0 15 -11 15 -35z m270 0 c0 -24 -5 -35 -15 -35 -10 0 -15 11
-15 35 0 24 5 35 15 35 10 0 15 -11 15 -35z m-950 -60 c0 -10 -11 -15 -35 -15
-24 0 -35 5 -35 15 0 10 11 15 35 15 24 0 35 -5 35 -15z m80 0 c0 -10 -11 -15
-35 -15 -24 0 -35 5 -35 15 0 10 11 15 35 15 24 0 35 -5 35 -15z m80 0 c0 -10
-11 -15 -35 -15 -24 0 -35 5 -35 15 0 10 11 15 35 15 24 0 35 -5 35 -15z m80
0 c0 -10 -11 -15 -35 -15 -24 0 -35 5 -35 15 0 10 11 15 35 15 24 0 35 -5 35
-15z m80 0 c0 -10 -11 -15 -35 -15 -24 0 -35 5 -35 15 0 10 11 15 35 15 24 0
35 -5 35 -15z m80 0 c0 -10 -11 -15 -35 -15 -24 0 -35 5 -35 15 0 10 11 15 35
15 24 0 35 -5 35 -15z m80 0 c0 -10 -11 -15 -35 -15 -24 0 -35 5 -35 15 0 10
11 15 35 15 24 0 35 -5 35 -15z m80 0 c0 -10 -11 -15 -35 -15 -24 0 -35 5 -35
15 0 10 11 15 35 15 24 0 35 -5 35 -15z m80 0 c0 -10 -11 -15 -35 -15 -24 0
-35 5 -35 15 0 10 11 15 35 15 24 0 35 -5 35 -15z m56 0 l29 -15 -37 0 c-27 0
-38 4 -38 15 0 19 10 19 46 0z m254 0 c0 -10 -10 -15 -32 -14 -18 1 -25 3 -15
6 9 2 17 9 17 14 0 5 7 9 15 9 8 0 15 -7 15 -15z m-162 -12 c-10 -2 -28 -2
-40 0 -13 2 -5 4 17 4 22 1 32 -1 23 -4z m80 0 c-10 -2 -28 -2 -40 0 -13 2 -5
4 17 4 22 1 32 -1 23 -4z"/>
<path d="M2940 2030 l0 -50 50 0 50 0 0 50 0 50 -50 0 -50 0 0 -50z"/>
<path d="M2210 1685 c-26 -32 13 -81 48 -59 34 22 22 74 -18 74 -10 0 -23 -7
-30 -15z m58 -27 c-2 -17 -10 -23 -28 -23 -18 0 -26 6 -28 23 -3 19 1 22 28
22 27 0 31 -3 28 -22z"/>
<path d="M2370 1685 c-26 -32 13 -81 48 -59 34 22 22 74 -18 74 -10 0 -23 -7
-30 -15z m58 -27 c-2 -17 -10 -23 -28 -23 -18 0 -26 6 -28 23 -3 19 1 22 28
22 27 0 31 -3 28 -22z"/>
<path d="M2850 1685 c-26 -32 13 -81 48 -59 34 22 22 74 -18 74 -10 0 -23 -7
-30 -15z m58 -27 c-2 -17 -10 -23 -28 -23 -18 0 -26 6 -28 23 -3 19 1 22 28
22 27 0 31 -3 28 -22z"/>
<path d="M3010 1685 c-26 -32 13 -81 48 -59 34 22 22 74 -18 74 -10 0 -23 -7
-30 -15z m58 -27 c-2 -17 -10 -23 -28 -23 -18 0 -26 6 -28 23 -3 19 1 22 28
22 27 0 31 -3 28 -22z"/>
<path d="M2244 1553 c3 -21 6 -48 6 -60 0 -22 3 -23 110 -23 107 0 110 1 110
23 0 12 3 39 6 60 l7 37 -123 0 -123 0 7 -37z m206 17 c0 -6 -37 -10 -90 -10
-53 0 -90 4 -90 10 0 6 37 10 90 10 53 0 90 -4 90 -10z m-100 -65 c0 -23 -4
-25 -45 -25 -41 0 -45 2 -45 25 0 23 4 25 45 25 41 0 45 -2 45 -25z m110 0 c0
-23 -4 -25 -45 -25 -41 0 -45 2 -45 25 0 23 4 25 45 25 41 0 45 -2 45 -25z"/>
<path d="M2804 1553 c3 -21 6 -48 6 -60 0 -22 3 -23 110 -23 107 0 110 1 110
23 0 12 3 39 6 60 l7 37 -123 0 -123 0 7 -37z m206 17 c0 -6 -37 -10 -90 -10
-53 0 -90 4 -90 10 0 6 37 10 90 10 53 0 90 -4 90 -10z m-100 -65 c0 -23 -4
-25 -45 -25 -41 0 -45 2 -45 25 0 23 4 25 45 25 41 0 45 -2 45 -25z m110 0 c0
-23 -4 -25 -45 -25 -41 0 -45 2 -45 25 0 23 4 25 45 25 41 0 45 -2 45 -25z"/>
<path d="M1453 1883 c-7 -3 -13 -17 -14 -31 0 -26 -1 -26 -9 -4 -12 28 -50 30
-57 2 -3 -11 -9 -20 -13 -20 -4 0 -10 9 -13 20 -3 12 -14 20 -27 20 -13 0 -24
-8 -27 -20 -3 -11 -9 -20 -13 -20 -4 0 -10 9 -13 20 -3 12 -14 20 -27 20 -13
0 -24 -8 -27 -20 -3 -11 -9 -20 -13 -20 -4 0 -10 9 -13 20 -3 12 -14 20 -27
20 -13 0 -24 -8 -27 -20 -3 -11 -9 -20 -13 -20 -4 0 -10 9 -13 20 -3 12 -14
20 -27 20 -13 0 -24 -8 -27 -20 -3 -11 -9 -20 -13 -20 -4 0 -10 9 -13 20 -3
12 -14 20 -27 20 -13 0 -24 -8 -27 -20 -3 -11 -9 -20 -13 -20 -4 0 -10 9 -13
20 -3 12 -14 20 -27 20 -13 0 -24 -8 -27 -20 -3 -11 -9 -20 -13 -20 -4 0 -10
9 -13 20 -7 28 -45 26 -56 -2 -4 -12 -7 -32 -6 -43 1 -11 3 -27 4 -36 1 -15
40 -39 62 -39 7 0 8 12 4 30 -4 19 -3 30 4 30 6 0 11 -8 11 -18 0 -11 11 -24
25 -30 40 -18 47 -15 40 18 -4 19 -3 30 4 30 6 0 11 -8 11 -18 0 -11 11 -24
25 -30 40 -18 47 -15 40 18 -4 19 -3 30 4 30 6 0 11 -8 11 -18 0 -11 11 -24
25 -30 40 -18 47 -15 40 18 -4 19 -3 30 4 30 6 0 11 -8 11 -18 0 -11 11 -24
25 -30 40 -18 47 -15 40 18 -4 19 -3 30 4 30 6 0 11 -8 11 -18 0 -11 11 -24
25 -30 40 -18 47 -15 40 18 -4 19 -3 30 4 30 6 0 11 -8 11 -18 0 -11 11 -24
25 -30 40 -18 47 -15 40 18 -4 19 -3 30 4 30 6 0 11 -8 11 -18 0 -29 43 -42
140 -42 l90 0 0 75 c0 41 -3 76 -7 76 -23 4 -130 5 -140 2z m130 -12 c4 -1 7
-23 6 -51 l-3 -50 -70 0 c-50 0 -66 3 -56 10 10 6 11 10 3 10 -16 0 -18 77 -3
82 8 2 96 2 123 -1z m-723 -56 c0 -38 -3 -45 -20 -45 -17 0 -20 7 -20 45 0 38
3 45 20 45 17 0 20 -7 20 -45z m80 0 c0 -38 -3 -45 -20 -45 -17 0 -20 7 -20
45 0 38 3 45 20 45 17 0 20 -7 20 -45z m80 0 c0 -38 -3 -45 -20 -45 -17 0 -20
7 -20 45 0 38 3 45 20 45 17 0 20 -7 20 -45z m80 0 c0 -38 -3 -45 -20 -45 -17
0 -20 7 -20 45 0 38 3 45 20 45 17 0 20 -7 20 -45z m80 0 c0 -38 -3 -45 -20
-45 -17 0 -20 7 -20 45 0 38 3 45 20 45 17 0 20 -7 20 -45z m80 0 c0 -38 -3
-45 -20 -45 -17 0 -20 7 -20 45 0 38 3 45 20 45 17 0 20 -7 20 -45z m80 0 c0
-38 -3 -45 -20 -45 -17 0 -20 7 -20 45 0 38 3 45 20 45 17 0 20 -7 20 -45z
m80 0 c0 -38 -3 -45 -20 -45 -17 0 -20 7 -20 45 0 38 3 45 20 45 17 0 20 -7
20 -45z m17 -47 c-3 -8 -6 -5 -6 6 -1 11 2 17 5 13 3 -3 4 -12 1 -19z"/>
<path d="M1464 1825 c3 -21 16 -31 16 -12 0 8 6 18 13 20 6 3 2 6 -10 6 -13 1
-20 -4 -19 -14z"/>
<path d="M1548 1833 c6 -2 12 -12 12 -20 0 -19 13 -9 16 12 1 10 -6 15 -19 14
-12 0 -16 -3 -9 -6z"/>
<path d="M1515 1821 c-3 -5 -1 -12 5 -16 5 -3 10 1 10 9 0 18 -6 21 -15 7z"/>
<path d="M1513 1783 c9 -2 23 -2 30 0 6 3 -1 5 -18 5 -16 0 -22 -2 -12 -5z"/>
<path d="M830 1700 c-25 -25 -22 -94 6 -115 42 -32 140 -9 118 27 -5 7 -7 22
-6 34 3 23 -21 49 -37 40 -6 -4 -15 3 -21 14 -14 25 -34 26 -60 0z m50 0 c0
-5 -4 -10 -10 -10 -5 0 -10 5 -10 10 0 6 5 10 10 10 6 0 10 -4 10 -10z m-20
-15 c6 -8 9 -19 5 -25 -7 -11 -34 15 -35 33 0 12 17 8 30 -8z m78 -14 c1 0 -7
-10 -18 -21 -12 -12 -26 -18 -31 -14 -8 4 -7 9 2 15 10 6 11 9 2 9 -7 0 -13 4
-13 9 0 8 43 9 58 2z m-98 -11 c0 -5 -4 -10 -10 -10 -5 0 -10 5 -10 10 0 6 5
10 10 10 6 0 10 -4 10 -10z m100 -20 c0 -5 -4 -10 -10 -10 -5 0 -10 5 -10 10
0 6 5 10 10 10 6 0 10 -4 10 -10z m-66 -51 c-3 -5 -10 -7 -15 -3 -5 3 -7 10
-3 15 3 5 10 7 15 3 5 -3 7 -10 3 -15z"/>
<path d="M990 1700 c-25 -25 -22 -94 6 -115 42 -32 140 -9 118 27 -5 7 -7 22
-6 34 3 23 -21 49 -37 40 -6 -4 -15 3 -21 14 -14 25 -34 26 -60 0z m50 0 c0
-5 -4 -10 -10 -10 -5 0 -10 5 -10 10 0 6 5 10 10 10 6 0 10 -4 10 -10z m-20
-15 c6 -8 9 -19 5 -25 -7 -11 -34 15 -35 33 0 12 17 8 30 -8z m78 -14 c1 0 -7
-10 -18 -21 -12 -12 -26 -18 -31 -14 -8 4 -7 9 2 15 10 6 11 9 2 9 -7 0 -13 4
-13 9 0 8 43 9 58 2z m-98 -11 c0 -5 -4 -10 -10 -10 -5 0 -10 5 -10 10 0 6 5
10 10 10 6 0 10 -4 10 -10z m100 -20 c0 -5 -4 -10 -10 -10 -5 0 -10 5 -10 10
0 6 5 10 10 10 6 0 10 -4 10 -10z m-66 -51 c-3 -5 -10 -7 -15 -3 -5 3 -7 10
-3 15 3 5 10 7 15 3 5 -3 7 -10 3 -15z"/>
<path d="M1150 1700 c-25 -25 -22 -94 6 -115 42 -32 140 -9 118 27 -5 7 -7 22
-6 34 3 23 -21 49 -37 40 -6 -4 -15 3 -21 14 -14 25 -34 26 -60 0z m50 0 c0
-5 -4 -10 -10 -10 -5 0 -10 5 -10 10 0 6 5 10 10 10 6 0 10 -4 10 -10z m-20
-15 c6 -8 9 -19 5 -25 -7 -11 -34 15 -35 33 0 12 17 8 30 -8z m78 -14 c1 0 -7
-10 -18 -21 -12 -12 -26 -18 -31 -14 -8 4 -7 9 2 15 10 6 11 9 2 9 -7 0 -13 4
-13 9 0 8 43 9 58 2z m-98 -11 c0 -5 -4 -10 -10 -10 -5 0 -10 5 -10 10 0 6 5
10 10 10 6 0 10 -4 10 -10z m100 -20 c0 -5 -4 -10 -10 -10 -5 0 -10 5 -10 10
0 6 5 10 10 10 6 0 10 -4 10 -10z m-66 -51 c-3 -5 -10 -7 -15 -3 -5 3 -7 10
-3 15 3 5 10 7 15 3 5 -3 7 -10 3 -15z"/>
<path d="M1310 1700 c-25 -25 -22 -94 6 -115 42 -32 140 -9 118 27 -5 7 -7 22
-6 34 3 23 -21 49 -37 40 -6 -4 -15 3 -21 14 -14 25 -34 26 -60 0z m50 0 c0
-5 -4 -10 -10 -10 -5 0 -10 5 -10 10 0 6 5 10 10 10 6 0 10 -4 10 -10z m-20
-15 c6 -8 9 -19 5 -25 -7 -11 -34 15 -35 33 0 12 17 8 30 -8z m78 -14 c1 0 -7
-10 -18 -21 -12 -12 -26 -18 -31 -14 -8 4 -7 9 2 15 10 6 11 9 2 9 -7 0 -13 4
-13 9 0 8 43 9 58 2z m-98 -11 c0 -5 -4 -10 -10 -10 -5 0 -10 5 -10 10 0 6 5
10 10 10 6 0 10 -4 10 -10z m100 -20 c0 -5 -4 -10 -10 -10 -5 0 -10 5 -10 10
0 6 5 10 10 10 6 0 10 -4 10 -10z m-66 -51 c-3 -5 -10 -7 -15 -3 -5 3 -7 10
-3 15 3 5 10 7 15 3 5 -3 7 -10 3 -15z"/>
<path d="M830 1540 c-36 -36 -13 -124 35 -131 6 -1 -3 -4 -20 -8 -27 -6 -30
-10 -33 -51 -2 -28 1 -48 10 -55 7 -5 13 -17 13 -25 0 -11 12 -15 45 -15 33 0
45 4 45 15 0 8 6 20 13 25 9 7 12 27 10 55 -3 41 -6 45 -33 51 -29 6 -29 7 -4
8 31 1 54 25 43 43 -5 7 -7 22 -6 34 3 23 -21 49 -37 40 -6 -4 -15 3 -21 14
-14 25 -34 26 -60 0z m50 0 c0 -5 -4 -10 -10 -10 -5 0 -10 5 -10 10 0 6 5 10
10 10 6 0 10 -4 10 -10z m-20 -15 c6 -8 9 -19 5 -25 -7 -11 -34 15 -35 33 0
12 17 8 30 -8z m78 -14 c1 0 -7 -10 -18 -21 -12 -12 -26 -18 -31 -14 -8 4 -7
9 2 15 10 6 11 9 2 9 -7 0 -13 4 -13 9 0 8 43 9 58 2z m-98 -11 c0 -5 -4 -10
-10 -10 -5 0 -10 5 -10 10 0 6 5 10 10 10 6 0 10 -4 10 -10z m100 -20 c0 -5
-4 -10 -10 -10 -5 0 -10 5 -10 10 0 6 5 10 10 10 6 0 10 -4 10 -10z m-66 -51
c-3 -5 -10 -7 -15 -3 -5 3 -7 10 -3 15 3 5 10 7 15 3 5 -3 7 -10 3 -15z m47
-39 c16 0 19 -7 19 -45 l0 -45 -60 0 -60 0 0 44 c0 41 2 45 28 49 15 2 33 2
40 0 8 -1 22 -3 33 -3z m-31 -110 c0 -5 -4 -10 -10 -10 -5 0 -10 5 -10 10 0 6
5 10 10 10 6 0 10 -4 10 -10z"/>
<path d="M830 1340 c0 -5 9 -8 20 -7 21 1 18 10 -5 13 -8 1 -15 -2 -15 -6z"/>
<path d="M895 1340 c-2 -3 5 -7 16 -7 10 -1 19 2 19 6 0 9 -29 10 -35 1z"/>
<path d="M990 1540 c-25 -25 -22 -94 6 -115 42 -32 140 -9 118 27 -5 7 -7 22
-6 34 3 23 -21 49 -37 40 -6 -4 -15 3 -21 14 -14 25 -34 26 -60 0z m50 0 c0
-5 -4 -10 -10 -10 -5 0 -10 5 -10 10 0 6 5 10 10 10 6 0 10 -4 10 -10z m-20
-15 c6 -8 9 -19 5 -25 -7 -11 -34 15 -35 33 0 12 17 8 30 -8z m78 -14 c1 0 -7
-10 -18 -21 -12 -12 -26 -18 -31 -14 -8 4 -7 9 2 15 10 6 11 9 2 9 -7 0 -13 4
-13 9 0 8 43 9 58 2z m-98 -11 c0 -5 -4 -10 -10 -10 -5 0 -10 5 -10 10 0 6 5
10 10 10 6 0 10 -4 10 -10z m100 -20 c0 -5 -4 -10 -10 -10 -5 0 -10 5 -10 10
0 6 5 10 10 10 6 0 10 -4 10 -10z m-66 -51 c-3 -5 -10 -7 -15 -3 -5 3 -7 10
-3 15 3 5 10 7 15 3 5 -3 7 -10 3 -15z"/>
<path d="M1150 1540 c-25 -25 -22 -94 6 -115 42 -32 140 -9 118 27 -5 7 -7 22
-6 34 3 23 -21 49 -37 40 -6 -4 -15 3 -21 14 -14 25 -34 26 -60 0z m50 0 c0
-5 -4 -10 -10 -10 -5 0 -10 5 -10 10 0 6 5 10 10 10 6 0 10 -4 10 -10z m-20
-15 c6 -8 9 -19 5 -25 -7 -11 -34 15 -35 33 0 12 17 8 30 -8z m78 -14 c1 0 -7
-10 -18 -21 -12 -12 -26 -18 -31 -14 -8 4 -7 9 2 15 10 6 11 9 2 9 -7 0 -13 4
-13 9 0 8 43 9 58 2z m-98 -11 c0 -5 -4 -10 -10 -10 -5 0 -10 5 -10 10 0 6 5
10 10 10 6 0 10 -4 10 -10z m100 -20 c0 -5 -4 -10 -10 -10 -5 0 -10 5 -10 10
0 6 5 10 10 10 6 0 10 -4 10 -10z m-66 -51 c-3 -5 -10 -7 -15 -3 -5 3 -7 10
-3 15 3 5 10 7 15 3 5 -3 7 -10 3 -15z"/>
<path d="M1310 1540 c-25 -25 -22 -94 6 -115 42 -32 140 -9 118 27 -5 7 -7 22
-6 34 3 23 -21 49 -37 40 -6 -4 -15 3 -21 14 -14 25 -34 26 -60 0z m50 0 c0
-5 -4 -10 -10 -10 -5 0 -10 5 -10 10 0 6 5 10 10 10 6 0 10 -4 10 -10z m-20
-15 c6 -8 9 -19 5 -25 -7 -11 -34 15 -35 33 0 12 17 8 30 -8z m78 -14 c1 0 -7
-10 -18 -21 -12 -12 -26 -18 -31 -14 -8 4 -7 9 2 15 10 6 11 9 2 9 -7 0 -13 4
-13 9 0 8 43 9 58 2z m-98 -11 c0 -5 -4 -10 -10 -10 -5 0 -10 5 -10 10 0 6 5
10 10 10 6 0 10 -4 10 -10z m100 -20 c0 -5 -4 -10 -10 -10 -5 0 -10 5 -10 10
0 6 5 10 10 10 6 0 10 -4 10 -10z m-66 -51 c-3 -5 -10 -7 -15 -3 -5 3 -7 10
-3 15 3 5 10 7 15 3 5 -3 7 -10 3 -15z"/>
<path d="M2573 1083 c-7 -3 -13 -17 -14 -31 0 -26 -1 -26 -9 -4 -12 28 -50 30
-57 2 -3 -11 -9 -20 -13 -20 -4 0 -10 9 -13 20 -3 12 -14 20 -27 20 -13 0 -24
-8 -27 -20 -3 -11 -9 -20 -13 -20 -4 0 -10 9 -13 20 -3 12 -14 20 -27 20 -13
0 -24 -8 -27 -20 -3 -11 -9 -20 -13 -20 -4 0 -10 9 -13 20 -3 12 -14 20 -27
20 -13 0 -24 -8 -27 -20 -3 -11 -9 -20 -13 -20 -4 0 -10 9 -13 20 -3 12 -14
20 -27 20 -13 0 -24 -8 -27 -20 -3 -11 -9 -20 -13 -20 -4 0 -10 9 -13 20 -7
28 -45 26 -56 -2 -4 -12 -7 -32 -6 -43 1 -11 3 -27 4 -36 1 -15 40 -39 62 -39
7 0 8 12 4 30 -4 19 -3 30 4 30 6 0 11 -8 11 -18 0 -11 11 -24 25 -30 40 -18
47 -15 40 18 -4 19 -3 30 4 30 6 0 11 -8 11 -18 0 -11 11 -24 25 -30 40 -18
47 -15 40 18 -4 19 -3 30 4 30 6 0 11 -8 11 -18 0 -11 11 -24 25 -30 40 -18
47 -15 40 18 -4 19 -3 30 4 30 6 0 11 -8 11 -18 0 -11 11 -24 25 -30 40 -18
47 -15 40 18 -4 19 -3 30 4 30 6 0 11 -8 11 -18 0 -29 43 -42 140 -42 l90 0 1
33 c1 20 3 25 6 11 2 -12 15 -26 29 -33 39 -17 46 -14 39 19 -4 19 -3 30 4 30
6 0 11 -8 11 -18 0 -11 11 -24 25 -30 40 -18 47 -15 40 18 -4 19 -3 30 4 30 6
0 11 -8 11 -18 0 -11 11 -24 25 -30 40 -18 47 -15 40 18 -4 19 -3 30 4 30 6 0
11 -8 11 -18 0 -17 36 -42 60 -42 9 0 6 113 -5 129 -11 19 -46 12 -52 -9 -3
-11 -9 -20 -13 -20 -4 0 -10 9 -13 20 -3 12 -14 20 -27 20 -13 0 -24 -8 -27
-20 -3 -11 -9 -20 -13 -20 -4 0 -10 9 -13 20 -3 12 -14 20 -27 20 -13 0 -24
-8 -27 -20 -3 -11 -9 -20 -13 -20 -4 0 -10 9 -13 20 -7 28 -45 26 -57 -2 -8
-22 -9 -22 -9 5 -1 15 -4 28 -8 28 -23 4 -130 5 -140 2z m130 -12 c4 -1 7 -23
6 -51 l-3 -50 -70 0 c-50 0 -66 3 -56 10 10 6 11 10 3 10 -16 0 -18 77 -3 82
8 2 96 2 123 -1z m-563 -56 c0 -38 -3 -45 -20 -45 -17 0 -20 7 -20 45 0 38 3
45 20 45 17 0 20 -7 20 -45z m80 0 c0 -38 -3 -45 -20 -45 -17 0 -20 7 -20 45
0 38 3 45 20 45 17 0 20 -7 20 -45z m80 0 c0 -38 -3 -45 -20 -45 -17 0 -20 7
-20 45 0 38 3 45 20 45 17 0 20 -7 20 -45z m80 0 c0 -38 -3 -45 -20 -45 -17 0
-20 7 -20 45 0 38 3 45 20 45 17 0 20 -7 20 -45z m80 0 c0 -38 -3 -45 -20 -45
-17 0 -20 7 -20 45 0 38 3 45 20 45 17 0 20 -7 20 -45z m80 0 c0 -38 -3 -45
-20 -45 -17 0 -20 7 -20 45 0 38 3 45 20 45 17 0 20 -7 20 -45z m240 0 c0 -38
-3 -45 -20 -45 -17 0 -20 7 -20 45 0 38 3 45 20 45 17 0 20 -7 20 -45z m80 0
c0 -38 -3 -45 -20 -45 -17 0 -20 7 -20 45 0 38 3 45 20 45 17 0 20 -7 20 -45z
m80 0 c0 -38 -3 -45 -20 -45 -17 0 -20 7 -20 45 0 38 3 45 20 45 17 0 20 -7
20 -45z m80 0 c0 -38 -3 -45 -20 -45 -17 0 -20 7 -20 45 0 38 3 45 20 45 17 0
20 -7 20 -45z m-463 -47 c-3 -8 -6 -5 -6 6 -1 11 2 17 5 13 3 -3 4 -12 1 -19z"/>
<path d="M2584 1025 c3 -21 16 -31 16 -12 0 8 6 18 13 20 6 3 2 6 -10 6 -13 1
-20 -4 -19 -14z"/>
<path d="M2668 1033 c6 -2 12 -12 12 -20 0 -19 13 -9 16 12 1 10 -6 15 -19 14
-12 0 -16 -3 -9 -6z"/>
<path d="M2635 1021 c-3 -5 -1 -12 5 -16 5 -3 10 1 10 9 0 18 -6 21 -15 7z"/>
<path d="M2633 983 c9 -2 23 -2 30 0 6 3 -1 5 -18 5 -16 0 -22 -2 -12 -5z"/>
<path d="M1140 897 c-15 -24 -16 -33 -7 -39 7 -5 8 -8 1 -8 -7 0 -10 -61 -9
-192 1 -106 3 -196 3 -200 1 -5 18 -8 37 -8 24 0 35 5 35 15 0 18 8 18 40 0
14 -8 43 -14 65 -14 33 0 36 2 18 9 -22 9 -27 20 -38 82 -6 39 -35 68 -67 68
-10 0 -18 7 -18 15 0 37 62 -6 101 -70 39 -65 103 -105 166 -104 32 0 34 2 16
9 -22 9 -27 20 -37 81 -8 46 -24 59 -83 70 -59 11 -63 16 -74 76 -9 50 -37 83
-70 83 -10 0 -19 7 -19 15 0 37 62 -6 101 -70 25 -42 46 -63 80 -80 34 -18 55
-38 80 -80 39 -66 103 -105 166 -104 32 0 34 2 16 9 -22 9 -27 20 -37 81 -8
46 -24 59 -83 70 -59 11 -63 16 -74 75 -12 61 -25 74 -85 85 -50 9 -74 29 -74
61 0 22 28 24 37 3 3 -9 27 -27 52 -40 36 -17 56 -38 84 -82 27 -45 47 -64 78
-78 31 -14 51 -35 81 -82 22 -35 44 -63 49 -63 5 0 9 -9 9 -20 0 -16 7 -20 30
-20 37 0 57 35 34 61 -13 14 -12 18 1 29 17 14 21 35 5 25 -6 -4 -6 3 0 21 9
24 9 25 -5 14 -19 -16 -19 -10 0 26 13 25 13 30 -1 45 -13 14 -13 18 1 29 17
14 21 35 5 25 -6 -4 -6 3 0 21 9 24 9 25 -5 14 -19 -16 -19 -10 0 26 13 26 13
30 -5 49 -24 26 -25 31 -4 39 10 4 13 2 8 -6 -4 -7 -3 -8 4 -4 17 10 15 23 -7
45 -17 17 -38 19 -300 19 l-282 1 -19 -32z m347 -62 c3 -9 27 -27 52 -40 36
-18 56 -38 85 -84 20 -34 41 -61 47 -61 5 0 9 -9 9 -21 0 -16 -4 -19 -22 -14
-34 11 -39 19 -49 71 -12 61 -25 74 -85 85 -50 9 -74 29 -74 61 0 22 28 24 37
3z m169 -11 c31 -33 32 -58 2 -49 -28 8 -48 32 -48 57 0 25 19 22 46 -8z"/>
<path d="M460 561 c-5 -11 -19 -23 -30 -26 -11 -3 -20 -14 -20 -23 1 -16 2
-15 11 1 5 9 16 17 24 17 7 0 17 9 20 20 3 11 10 20 15 20 5 0 12 -9 15 -20 3
-11 13 -20 20 -20 8 0 19 -8 24 -17 9 -16 10 -17 11 -1 0 9 -9 20 -20 23 -11
3 -25 15 -30 26 -6 10 -15 19 -20 19 -5 0 -14 -9 -20 -19z"/>
<path d="M780 561 c-5 -11 -19 -23 -30 -26 -11 -3 -20 -14 -20 -23 1 -16 2
-15 11 1 5 9 16 17 24 17 7 0 17 9 20 20 3 11 10 20 15 20 5 0 12 -9 15 -20 3
-11 13 -20 20 -20 8 0 19 -8 24 -17 9 -16 10 -17 11 -1 0 9 -9 20 -20 23 -11
3 -25 15 -30 26 -6 10 -15 19 -20 19 -5 0 -14 -9 -20 -19z"/>
<path d="M3020 561 c-5 -11 -19 -23 -30 -26 -11 -3 -20 -14 -20 -23 1 -16 2
-15 11 1 5 9 16 17 24 17 7 0 17 9 20 20 3 11 10 20 15 20 5 0 12 -9 15 -20 3
-11 13 -20 20 -20 8 0 19 -8 24 -17 9 -16 10 -17 11 -1 0 9 -9 20 -20 23 -11
3 -25 15 -30 26 -6 10 -15 19 -20 19 -5 0 -14 -9 -20 -19z"/>
<path d="M3340 561 c-5 -11 -19 -23 -30 -26 -11 -3 -20 -14 -20 -23 1 -16 2
-15 11 1 5 9 16 17 24 17 7 0 17 9 20 20 3 11 10 20 15 20 5 0 12 -9 15 -20 3
-11 13 -20 20 -20 8 0 19 -8 24 -17 9 -16 10 -17 11 -1 0 9 -9 20 -20 23 -11
3 -25 15 -30 26 -6 10 -15 19 -20 19 -5 0 -14 -9 -20 -19z"/>
<path d="M376 485 c-3 -9 3 -19 16 -26 13 -7 18 -7 14 -1 -3 6 -1 14 5 18 8 4
7 9 -2 15 -20 12 -26 11 -33 -6z m24 -5 c0 -5 -5 -10 -11 -10 -5 0 -7 5 -4 10
3 6 8 10 11 10 2 0 4 -4 4 -10z"/>
<path d="M551 491 c-9 -6 -10 -11 -2 -15 6 -4 8 -12 5 -18 -4 -6 1 -6 14 1 13
7 19 17 16 26 -7 17 -13 18 -33 6z m24 -11 c3 -5 1 -10 -4 -10 -6 0 -11 5 -11
10 0 6 2 10 4 10 3 0 8 -4 11 -10z"/>
<path d="M696 485 c-3 -9 3 -19 16 -26 13 -7 18 -7 14 -1 -3 6 -1 14 5 18 8 4
7 9 -2 15 -20 12 -26 11 -33 -6z m24 -5 c0 -5 -5 -10 -11 -10 -5 0 -7 5 -4 10
3 6 8 10 11 10 2 0 4 -4 4 -10z"/>
<path d="M871 491 c-9 -6 -10 -11 -2 -15 6 -4 8 -12 5 -18 -4 -6 1 -6 14 1 13
7 19 17 16 26 -7 17 -13 18 -33 6z m24 -11 c3 -5 1 -10 -4 -10 -6 0 -11 5 -11
10 0 6 2 10 4 10 3 0 8 -4 11 -10z"/>
<path d="M2936 485 c-3 -9 3 -19 16 -26 13 -7 18 -7 14 -1 -3 6 -1 14 5 18 8
4 7 9 -2 15 -20 12 -26 11 -33 -6z m24 -5 c0 -5 -5 -10 -11 -10 -5 0 -7 5 -4
10 3 6 8 10 11 10 2 0 4 -4 4 -10z"/>
<path d="M3111 491 c-9 -6 -10 -11 -2 -15 6 -4 8 -12 5 -18 -4 -6 1 -6 14 1
13 7 19 17 16 26 -7 17 -13 18 -33 6z m24 -11 c3 -5 1 -10 -4 -10 -6 0 -11 5
-11 10 0 6 2 10 4 10 3 0 8 -4 11 -10z"/>
<path d="M3256 485 c-3 -9 3 -19 16 -26 13 -7 18 -7 14 -1 -3 6 -1 14 5 18 8
4 7 9 -2 15 -20 12 -26 11 -33 -6z m24 -5 c0 -5 -5 -10 -11 -10 -5 0 -7 5 -4
10 3 6 8 10 11 10 2 0 4 -4 4 -10z"/>
<path d="M3431 491 c-9 -6 -10 -11 -2 -15 6 -4 8 -12 5 -18 -4 -6 1 -6 14 1
13 7 19 17 16 26 -7 17 -13 18 -33 6z m24 -11 c3 -5 1 -10 -4 -10 -6 0 -11 5
-11 10 0 6 2 10 4 10 3 0 8 -4 11 -10z"/>
<path d="M2861 359 c-12 -12 -20 -28 -17 -36 4 -8 1 -11 -5 -8 -6 4 -8 14 -5
22 3 8 1 11 -4 8 -15 -9 -12 -32 6 -61 13 -20 14 -24 3 -22 -9 2 -15 -8 -17
-28 -6 -66 86 -99 134 -47 27 29 30 80 5 75 -11 -2 -10 2 3 22 24 37 20 52
-18 75 -42 26 -57 26 -85 0z m100 -42 c-10 -9 -11 -8 -5 6 3 10 9 15 12 12 3
-3 0 -11 -7 -18z m-31 -35 c0 -7 -9 -16 -20 -19 -14 -4 -20 -14 -20 -33 0 -36
-24 -57 -45 -40 -8 7 -15 24 -15 39 0 23 4 27 27 26 20 0 28 6 31 20 2 16 1
17 -7 5 -9 -13 -11 -13 -11 1 0 11 9 16 30 16 19 0 30 -5 30 -15z m-10 -52
c-8 -5 -17 -7 -19 -4 -3 3 1 9 9 14 8 5 17 7 19 4 3 -3 -1 -9 -9 -14z m50 -6
c0 -8 -5 -12 -10 -9 -6 4 -8 11 -5 16 9 14 15 11 15 -7z"/>
<path d="M2842 218 c2 -13 10 -23 18 -23 8 0 16 10 18 23 3 17 -2 22 -18 22
-16 0 -21 -5 -18 -22z m28 -3 c0 -8 -4 -15 -10 -15 -5 0 -10 7 -10 15 0 8 5
15 10 15 6 0 10 -7 10 -15z"/>
<path d="M871 313 c1 -26 4 -38 6 -25 3 13 12 22 23 22 11 0 20 -9 23 -22 2
-13 4 -3 3 22 -1 41 -3 45 -28 48 -27 3 -28 2 -27 -45z m49 22 c0 -8 -9 -15
-20 -15 -11 0 -20 7 -20 15 0 8 9 15 20 15 11 0 20 -7 20 -15z"/>
<path d="M1190 346 c0 -7 -9 -16 -21 -19 -29 -8 -22 -51 9 -55 20 -3 22 1 22
42 0 25 -2 46 -5 46 -3 0 -5 -6 -5 -14z m0 -46 c0 -11 -7 -20 -15 -20 -8 0
-15 9 -15 20 0 11 7 20 15 20 8 0 15 -9 15 -20z"/>
<path d="M1240 315 c0 -42 2 -46 23 -43 19 3 22 9 22 43 0 34 -3 40 -22 43
-21 3 -23 -1 -23 -43z m40 20 c0 -8 -7 -15 -15 -15 -8 0 -15 7 -15 15 0 8 7
15 15 15 8 0 15 -7 15 -15z m0 -40 c0 -8 -7 -15 -15 -15 -8 0 -15 7 -15 15 0
8 7 15 15 15 8 0 15 -7 15 -15z"/>
<path d="M1390 315 c0 -42 2 -46 23 -43 19 3 22 9 22 43 0 34 -3 40 -22 43
-21 3 -23 -1 -23 -43z m40 20 c0 -8 -7 -15 -15 -15 -8 0 -15 7 -15 15 0 8 7
15 15 15 8 0 15 -7 15 -15z m0 -40 c0 -8 -7 -15 -15 -15 -8 0 -15 7 -15 15 0
8 7 15 15 15 8 0 15 -7 15 -15z"/>
<path d="M1521 317 c-1 -45 1 -48 22 -45 30 4 37 47 8 55 -11 3 -22 12 -24 22
-3 9 -5 -6 -6 -32z m39 -17 c0 -11 -7 -20 -15 -20 -8 0 -15 9 -15 20 0 11 7
20 15 20 8 0 15 -9 15 -20z"/>
<path d="M1597 353 c22 -4 22 -6 8 -33 -8 -16 -15 -35 -15 -42 0 -7 9 7 20 31
11 24 20 45 20 47 0 2 -12 3 -27 3 -24 -2 -25 -2 -6 -6z"/>
<path d="M1644 346 c-7 -19 3 -36 22 -36 8 0 14 -7 14 -16 0 -12 -6 -15 -21
-11 -16 4 -19 3 -11 -5 22 -22 43 0 40 39 -3 40 -32 59 -44 29z m36 -11 c0 -8
-7 -15 -15 -15 -8 0 -15 7 -15 15 0 8 7 15 15 15 8 0 15 -7 15 -15z"/>
<path d="M1704 346 c-7 -19 3 -36 22 -36 8 0 14 -7 14 -16 0 -12 -6 -15 -21
-11 -16 4 -19 3 -11 -5 22 -22 43 0 40 39 -3 40 -32 59 -44 29z m36 -11 c0 -8
-7 -15 -15 -15 -8 0 -15 7 -15 15 0 8 7 15 15 15 8 0 15 -7 15 -15z"/>
<path d="M1821 313 c2 -47 2 -47 9 -13 4 19 8 31 9 25 1 -5 10 -21 21 -35 l20
-25 -2 50 c-1 46 -1 47 -7 15 l-7 -35 -17 33 c-10 17 -20 32 -22 32 -3 0 -4
-21 -4 -47z"/>
<path d="M1994 346 c-3 -8 -4 -27 -2 -43 3 -29 31 -44 50 -25 6 6 0 8 -16 5
-24 -5 -26 -3 -26 32 0 34 2 37 25 33 13 -3 22 -1 19 3 -8 14 -44 10 -50 -5z"/>
<path d="M2190 346 c0 -7 -9 -16 -21 -19 -29 -8 -22 -51 9 -55 20 -3 22 1 22
42 0 25 -2 46 -5 46 -3 0 -5 -6 -5 -14z m0 -46 c0 -11 -7 -20 -15 -20 -8 0
-15 9 -15 20 0 11 7 20 15 20 8 0 15 -9 15 -20z"/>
<path d="M2291 313 c2 -47 2 -47 9 -13 4 19 8 31 9 25 1 -5 10 -21 21 -35 l20
-25 -2 50 c-1 46 -1 47 -7 15 l-7 -35 -17 33 c-10 17 -20 32 -22 32 -3 0 -4
-21 -4 -47z"/>
<path d="M2530 346 c0 -7 -9 -16 -21 -19 -29 -8 -22 -51 9 -55 20 -3 22 1 22
42 0 25 -2 46 -5 46 -3 0 -5 -6 -5 -14z m0 -46 c0 -11 -7 -20 -15 -20 -8 0
-15 9 -15 20 0 11 7 20 15 20 8 0 15 -9 15 -20z"/>
<path d="M2650 346 c0 -7 -9 -16 -21 -19 -29 -8 -22 -51 9 -55 20 -3 22 1 22
42 0 25 -2 46 -5 46 -3 0 -5 -6 -5 -14z m0 -46 c0 -11 -7 -20 -15 -20 -8 0
-15 9 -15 20 0 11 7 20 15 20 8 0 15 -9 15 -20z"/>
<path d="M2230 317 c0 -20 3 -38 8 -41 8 -5 7 62 -2 71 -3 4 -6 -10 -6 -30z"/>
<path d="M952 300 c0 -19 2 -27 5 -17 2 9 2 25 0 35 -3 9 -5 1 -5 -18z"/>
<path d="M970 288 c0 -24 4 -38 8 -32 4 6 15 13 25 17 26 10 18 51 -10 55 -21
3 -23 -1 -23 -40z m40 12 c0 -11 -7 -20 -15 -20 -8 0 -15 9 -15 20 0 11 7 20
15 20 8 0 15 -9 15 -20z"/>
<path d="M1030 288 c0 -24 4 -38 8 -32 4 6 15 13 25 17 26 10 18 51 -10 55
-21 3 -23 -1 -23 -40z m40 12 c0 -11 -7 -20 -15 -20 -8 0 -15 9 -15 20 0 11 7
20 15 20 8 0 15 -9 15 -20z"/>
<path d="M1094 316 c-12 -33 23 -65 40 -37 4 5 -3 7 -14 4 -11 -3 -20 0 -20 6
0 6 9 11 21 11 12 0 19 5 17 13 -7 18 -37 21 -44 3z m33 -2 c-3 -3 -12 -4 -19
-1 -8 3 -5 6 6 6 11 1 17 -2 13 -5z"/>
<path d="M1317 293 c2 -19 -1 -33 -9 -36 -8 -3 -9 -6 -2 -6 17 -1 46 47 41 67
-3 12 -5 10 -6 -5 -1 -27 -18 -31 -24 -5 -2 9 -2 3 0 -15z"/>
<path d="M1464 316 c-9 -24 4 -48 23 -44 12 2 18 12 18 28 0 29 -32 41 -41 16z
m36 -16 c0 -11 -7 -20 -15 -20 -8 0 -15 9 -15 20 0 11 7 20 15 20 8 0 15 -9
15 -20z"/>
<path d="M1904 316 c-9 -24 4 -48 23 -44 12 2 18 12 18 28 0 29 -32 41 -41 16z
m36 -16 c0 -11 -7 -20 -15 -20 -8 0 -15 9 -15 20 0 11 7 20 15 20 8 0 15 -9
15 -20z"/>
<path d="M2060 300 c0 -16 2 -30 4 -30 2 0 6 14 8 30 3 17 1 30 -4 30 -4 0 -8
-13 -8 -30z"/>
<path d="M2094 316 c-12 -33 23 -65 40 -37 4 5 -3 7 -14 4 -11 -3 -20 0 -20 6
0 6 9 11 21 11 12 0 19 5 17 13 -7 18 -37 21 -44 3z m33 -2 c-3 -3 -12 -4 -19
-1 -8 3 -5 6 6 6 11 1 17 -2 13 -5z"/>
<path d="M2212 300 c0 -19 2 -27 5 -17 2 9 2 25 0 35 -3 9 -5 1 -5 -18z"/>
<path d="M2374 316 c-12 -33 23 -65 40 -37 4 5 -3 7 -14 4 -11 -3 -20 0 -20 6
0 6 9 11 21 11 12 0 19 5 17 13 -7 18 -37 21 -44 3z m33 -2 c-3 -3 -12 -4 -19
-1 -8 3 -5 6 6 6 11 1 17 -2 13 -5z"/>
<path d="M2434 316 c-12 -33 23 -65 40 -37 4 5 -3 7 -14 4 -11 -3 -20 0 -20 6
0 6 9 11 21 11 12 0 19 5 17 13 -7 18 -37 21 -44 3z m33 -2 c-3 -3 -12 -4 -19
-1 -8 3 -5 6 6 6 11 1 17 -2 13 -5z"/>
<path d="M2554 316 c-12 -33 23 -65 40 -37 4 5 -3 7 -14 4 -11 -3 -20 0 -20 6
0 6 9 11 21 11 12 0 19 5 17 13 -7 18 -37 21 -44 3z m33 -2 c-3 -3 -12 -4 -19
-1 -8 3 -5 6 6 6 11 1 17 -2 13 -5z"/>
<path d="M1723 223 c24 -4 27 -8 27 -44 l0 -39 43 1 42 2 -35 6 c-31 5 -35 10
-38 39 -3 30 -1 32 29 32 l33 0 -30 -32 -29 -33 33 29 c17 17 32 33 32 38 0 4
-30 7 -67 7 -38 -1 -56 -4 -40 -6z"/>
</g>
</svg>
